M48
; DRILL file {KiCad (5.1.6)-1} date 07/15/20 21:07:35
; FORMAT={3:3/ absolute / metric / suppress leading zeros}
; #@! TF.CreationDate,2020-07-15T21:07:35-05:00
; #@! TF.GenerationSoftware,Kicad,Pcbnew,(5.1.6)-1
; #@! TF.FileFunction,Plated,1,2,PTH
FMAT,2
METRIC,TZ
T1C0.400
T2C0.600
T3C1.000
T4C1.470
T5C1.500
T6C2.200
%
G90
G05
T1
X85350Y-121000
X85833Y-119833
X85833Y-122167
X87000Y-119350
X87000Y-122650
X88167Y-119833
X88167Y-122167
X88650Y-121000
X124850Y-159500
X125333Y-158333
X125333Y-160667
X126500Y-157850
X126500Y-161150
X127667Y-158333
X127667Y-160667
X128150Y-159500
X45850Y-159500
X46333Y-158333
X46333Y-160667
X47500Y-157850
X47500Y-161150
X48667Y-158333
X48667Y-160667
X49150Y-159500
X45850Y-43500
X46333Y-42333
X46333Y-44667
X47500Y-41850
X47500Y-45150
X48667Y-42333
X48667Y-44667
X49150Y-43500
X124850Y-43500
X125333Y-42333
X125333Y-44667
X126500Y-41850
X126500Y-45150
X127667Y-42333
X127667Y-44667
X128150Y-43500
T2
X55100Y-50200
X60000Y-50200
X62800Y-64600
X63500Y-45900
X64300Y-64600
X65000Y-69750
X65000Y-72750
X65000Y-74200
X72250Y-75200
X72250Y-76200
X73300Y-47700
X76800Y-67240
X77600Y-68000
X77600Y-69000
X77600Y-70000
X77600Y-71000
X77600Y-72000
X83400Y-50100
X92000Y-69500
X92500Y-49500
T3
X67960Y-51420
X67960Y-53960
X67960Y-56500
X70500Y-51420
X70500Y-53960
X70500Y-56500
X98600Y-56500
X98600Y-59000
X98600Y-61500
X113100Y-56500
X113100Y-61500
T4
X111690Y-107960
X113000Y-106500
X118000Y-106000
X118040Y-105420
X54690Y-107960
X56000Y-106500
X61000Y-106000
X61040Y-105420
X73690Y-88960
X75000Y-87500
X80000Y-87000
X80040Y-86420
X111690Y-126960
X113000Y-125500
X118000Y-125000
X118040Y-124420
X73690Y-107960
X75000Y-106500
X80000Y-106000
X80040Y-105420
X73690Y-145960
X75000Y-144500
X80000Y-144000
X80040Y-143420
X73690Y-126960
X75000Y-125500
X80000Y-125000
X80040Y-124420
X92690Y-107960
X94000Y-106500
X99000Y-106000
X99040Y-105420
X54690Y-88960
X56000Y-87500
X61000Y-87000
X61040Y-86420
X54690Y-145960
X56000Y-144500
X61000Y-144000
X61040Y-143420
X92690Y-126960
X94000Y-125500
X99000Y-125000
X99040Y-124420
X111690Y-145960
X113000Y-144500
X118000Y-144000
X118040Y-143420
X54690Y-126960
X56000Y-125500
X61000Y-125000
X61040Y-124420
X111690Y-88960
X113000Y-87500
X118000Y-87000
X118040Y-86420
X92690Y-88960
X94000Y-87500
X99000Y-87000
X99040Y-86420
X92690Y-145960
X94000Y-144500
X99000Y-144000
X99040Y-143420
T6
X87000Y-121000
X126500Y-159500
X47500Y-159500
X47500Y-43500
X126500Y-43500
T2
G00X53180Y-42300
M15
G01X53180Y-42900
M16
G05
G00X53180Y-46230
M15
G01X53180Y-47330
M16
G05
G00X61820Y-42300
M15
G01X61820Y-42900
M16
G05
G00X61820Y-46230
M15
G01X61820Y-47330
M16
G05
T5
G00X105450Y-53400
M15
G01X106750Y-53400
M16
G05
G00X105450Y-64600
M15
G01X106750Y-64600
M16
G05
T0
M30
