M48
; DRILL file {KiCad (5.1.6)-1} date 09/07/20 19:58:56
; FORMAT={-:-/ absolute / metric / decimal}
; #@! TF.CreationDate,2020-09-07T19:58:56-05:00
; #@! TF.GenerationSoftware,Kicad,Pcbnew,(5.1.6)-1
FMAT,2
METRIC
T1C0.400
T2C0.600
T3C1.000
T4C1.470
T5C1.500
T6C2.200
T7C0.650
T8C1.750
T9C3.988
%
G90
G05
T1
X45.85Y-43.5
X46.333Y-42.333
X46.333Y-44.667
X47.5Y-41.85
X47.5Y-45.15
X48.667Y-42.333
X48.667Y-44.667
X49.15Y-43.5
X124.85Y-43.5
X125.333Y-42.333
X125.333Y-44.667
X126.5Y-41.85
X126.5Y-45.15
X127.667Y-42.333
X127.667Y-44.667
X128.15Y-43.5
X85.35Y-121.0
X85.833Y-119.833
X85.833Y-122.167
X87.0Y-119.35
X87.0Y-122.65
X88.167Y-119.833
X88.167Y-122.167
X88.65Y-121.0
X45.85Y-159.5
X46.333Y-158.333
X46.333Y-160.667
X47.5Y-157.85
X47.5Y-161.15
X48.667Y-158.333
X48.667Y-160.667
X49.15Y-159.5
X124.85Y-159.5
X125.333Y-158.333
X125.333Y-160.667
X126.5Y-157.85
X126.5Y-161.15
X127.667Y-158.333
X127.667Y-160.667
X128.15Y-159.5
T2
X55.1Y-50.2
X60.0Y-50.2
X62.8Y-64.6
X63.5Y-45.9
X64.3Y-64.6
X65.0Y-69.75
X65.0Y-72.75
X65.0Y-74.2
X70.05Y-69.1
X70.05Y-70.6
X70.05Y-72.1
X72.25Y-76.2
X73.3Y-47.7
X76.8Y-67.24
X77.6Y-68.0
X77.6Y-69.0
X77.6Y-70.0
X77.6Y-71.0
X77.6Y-72.0
X83.4Y-50.1
X92.0Y-69.5
X92.5Y-49.5
T3
X67.96Y-51.42
X67.96Y-53.96
X67.96Y-56.5
X70.5Y-51.42
X70.5Y-53.96
X70.5Y-56.5
X98.6Y-56.5
X98.6Y-59.0
X98.6Y-61.5
X113.1Y-56.5
X113.1Y-61.5
T4
X54.69Y-126.96
X56.0Y-125.5
X61.0Y-125.0
X61.04Y-124.42
X73.69Y-88.96
X75.0Y-87.5
X80.0Y-87.0
X80.04Y-86.42
X73.69Y-126.96
X75.0Y-125.5
X80.0Y-125.0
X80.04Y-124.42
X92.69Y-88.96
X94.0Y-87.5
X99.0Y-87.0
X99.04Y-86.42
X92.69Y-126.96
X94.0Y-125.5
X99.0Y-125.0
X99.04Y-124.42
X54.69Y-107.96
X56.0Y-106.5
X61.0Y-106.0
X61.04Y-105.42
X111.69Y-88.96
X113.0Y-87.5
X118.0Y-87.0
X118.04Y-86.42
X92.69Y-107.96
X94.0Y-106.5
X99.0Y-106.0
X99.04Y-105.42
X111.69Y-145.96
X113.0Y-144.5
X118.0Y-144.0
X118.04Y-143.42
X54.69Y-88.96
X56.0Y-87.5
X61.0Y-87.0
X61.04Y-86.42
X73.69Y-107.96
X75.0Y-106.5
X80.0Y-106.0
X80.04Y-105.42
X92.69Y-145.96
X94.0Y-144.5
X99.0Y-144.0
X99.04Y-143.42
X73.69Y-145.96
X75.0Y-144.5
X80.0Y-144.0
X80.04Y-143.42
X111.69Y-107.96
X113.0Y-106.5
X118.0Y-106.0
X118.04Y-105.42
X54.69Y-145.96
X56.0Y-144.5
X61.0Y-144.0
X61.04Y-143.42
X111.69Y-126.96
X113.0Y-125.5
X118.0Y-125.0
X118.04Y-124.42
T6
X47.5Y-43.5
X126.5Y-43.5
X87.0Y-121.0
X47.5Y-159.5
X126.5Y-159.5
T7
X54.61Y-46.25
X60.39Y-46.25
T8
X53.42Y-148.5
X63.58Y-148.5
X110.42Y-129.5
X120.58Y-129.5
X53.42Y-129.5
X63.58Y-129.5
X72.42Y-91.5
X82.58Y-91.5
X72.42Y-129.5
X82.58Y-129.5
X91.42Y-91.5
X101.58Y-91.5
X91.42Y-129.5
X101.58Y-129.5
X53.42Y-110.5
X63.58Y-110.5
X110.42Y-91.5
X120.58Y-91.5
X91.42Y-110.5
X101.58Y-110.5
X110.42Y-148.5
X120.58Y-148.5
X53.42Y-91.5
X63.58Y-91.5
X72.42Y-110.5
X82.58Y-110.5
X91.42Y-148.5
X101.58Y-148.5
X72.42Y-148.5
X82.58Y-148.5
X110.42Y-110.5
X120.58Y-110.5
T9
X96.5Y-110.5
X115.5Y-148.5
X58.5Y-91.5
X77.5Y-110.5
X96.5Y-148.5
X77.5Y-148.5
X115.5Y-110.5
X58.5Y-148.5
X115.5Y-129.5
X58.5Y-129.5
X77.5Y-91.5
X77.5Y-129.5
X96.5Y-91.5
X96.5Y-129.5
X58.5Y-110.5
X115.5Y-91.5
T2
G00X53.18Y-42.3
M15
G01X53.18Y-42.9
M16
G05
G00X53.18Y-46.23
M15
G01X53.18Y-47.33
M16
G05
G00X61.82Y-42.3
M15
G01X61.82Y-42.9
M16
G05
G00X61.82Y-46.23
M15
G01X61.82Y-47.33
M16
G05
T5
G00X105.45Y-53.4
M15
G01X106.75Y-53.4
M16
G05
G00X105.45Y-64.6
M15
G01X106.75Y-64.6
M16
G05
T0
M30
