%TF.GenerationSoftware,KiCad,Pcbnew,(5.1.6)-1*%
%TF.CreationDate,2020-07-15T15:55:53-05:00*%
%TF.ProjectId,deco-pad-v1,6465636f-2d70-4616-942d-76312e6b6963,rev?*%
%TF.SameCoordinates,Original*%
%TF.FileFunction,Legend,Top*%
%TF.FilePolarity,Positive*%
%FSLAX46Y46*%
G04 Gerber Fmt 4.6, Leading zero omitted, Abs format (unit mm)*
G04 Created by KiCad (PCBNEW (5.1.6)-1) date 2020-07-15 15:55:53*
%MOMM*%
%LPD*%
G01*
G04 APERTURE LIST*
%ADD10C,0.120000*%
%ADD11C,0.150000*%
G04 APERTURE END LIST*
D10*
%TO.C,SW1*%
X109100000Y-62000000D02*
G75*
G03*
X109100000Y-62000000I-3000000J0D01*
G01*
X108100000Y-56100000D02*
X112200000Y-56100000D01*
X112200000Y-67900000D02*
X108100000Y-67900000D01*
X104100000Y-67900000D02*
X100000000Y-67900000D01*
X104100000Y-56100000D02*
X100000000Y-56100000D01*
X100000000Y-56100000D02*
X100000000Y-67900000D01*
X98600000Y-58200000D02*
X98300000Y-57900000D01*
X98300000Y-57900000D02*
X98900000Y-57900000D01*
X98900000Y-57900000D02*
X98600000Y-58200000D01*
X112200000Y-56100000D02*
X112200000Y-58500000D01*
X112200000Y-60700000D02*
X112200000Y-63300000D01*
X112200000Y-65500000D02*
X112200000Y-67900000D01*
X106100000Y-61500000D02*
X106100000Y-62500000D01*
X105600000Y-62000000D02*
X106600000Y-62000000D01*
D11*
X100066666Y-55204761D02*
X100209523Y-55252380D01*
X100447619Y-55252380D01*
X100542857Y-55204761D01*
X100590476Y-55157142D01*
X100638095Y-55061904D01*
X100638095Y-54966666D01*
X100590476Y-54871428D01*
X100542857Y-54823809D01*
X100447619Y-54776190D01*
X100257142Y-54728571D01*
X100161904Y-54680952D01*
X100114285Y-54633333D01*
X100066666Y-54538095D01*
X100066666Y-54442857D01*
X100114285Y-54347619D01*
X100161904Y-54300000D01*
X100257142Y-54252380D01*
X100495238Y-54252380D01*
X100638095Y-54300000D01*
X100971428Y-54252380D02*
X101209523Y-55252380D01*
X101400000Y-54538095D01*
X101590476Y-55252380D01*
X101828571Y-54252380D01*
X102733333Y-55252380D02*
X102161904Y-55252380D01*
X102447619Y-55252380D02*
X102447619Y-54252380D01*
X102352380Y-54395238D01*
X102257142Y-54490476D01*
X102161904Y-54538095D01*
%TO.C,H5*%
X46738095Y-156752380D02*
X46738095Y-155752380D01*
X46738095Y-156228571D02*
X47309523Y-156228571D01*
X47309523Y-156752380D02*
X47309523Y-155752380D01*
X48261904Y-155752380D02*
X47785714Y-155752380D01*
X47738095Y-156228571D01*
X47785714Y-156180952D01*
X47880952Y-156133333D01*
X48119047Y-156133333D01*
X48214285Y-156180952D01*
X48261904Y-156228571D01*
X48309523Y-156323809D01*
X48309523Y-156561904D01*
X48261904Y-156657142D01*
X48214285Y-156704761D01*
X48119047Y-156752380D01*
X47880952Y-156752380D01*
X47785714Y-156704761D01*
X47738095Y-156657142D01*
%TO.C,H4*%
X86238095Y-118252380D02*
X86238095Y-117252380D01*
X86238095Y-117728571D02*
X86809523Y-117728571D01*
X86809523Y-118252380D02*
X86809523Y-117252380D01*
X87714285Y-117585714D02*
X87714285Y-118252380D01*
X87476190Y-117204761D02*
X87238095Y-117919047D01*
X87857142Y-117919047D01*
%TO.C,H3*%
X125738095Y-156752380D02*
X125738095Y-155752380D01*
X125738095Y-156228571D02*
X126309523Y-156228571D01*
X126309523Y-156752380D02*
X126309523Y-155752380D01*
X126690476Y-155752380D02*
X127309523Y-155752380D01*
X126976190Y-156133333D01*
X127119047Y-156133333D01*
X127214285Y-156180952D01*
X127261904Y-156228571D01*
X127309523Y-156323809D01*
X127309523Y-156561904D01*
X127261904Y-156657142D01*
X127214285Y-156704761D01*
X127119047Y-156752380D01*
X126833333Y-156752380D01*
X126738095Y-156704761D01*
X126690476Y-156657142D01*
%TO.C,H2*%
X125738095Y-40752380D02*
X125738095Y-39752380D01*
X125738095Y-40228571D02*
X126309523Y-40228571D01*
X126309523Y-40752380D02*
X126309523Y-39752380D01*
X126738095Y-39847619D02*
X126785714Y-39800000D01*
X126880952Y-39752380D01*
X127119047Y-39752380D01*
X127214285Y-39800000D01*
X127261904Y-39847619D01*
X127309523Y-39942857D01*
X127309523Y-40038095D01*
X127261904Y-40180952D01*
X126690476Y-40752380D01*
X127309523Y-40752380D01*
%TO.C,H1*%
X46738095Y-40752380D02*
X46738095Y-39752380D01*
X46738095Y-40228571D02*
X47309523Y-40228571D01*
X47309523Y-40752380D02*
X47309523Y-39752380D01*
X48309523Y-40752380D02*
X47738095Y-40752380D01*
X48023809Y-40752380D02*
X48023809Y-39752380D01*
X47928571Y-39895238D01*
X47833333Y-39990476D01*
X47738095Y-40038095D01*
%TD*%
M02*
