M48
; DRILL file {KiCad (5.1.6)-1} date 07/15/20 15:55:47
; FORMAT={3:3/ absolute / metric / suppress leading zeros}
; #@! TF.CreationDate,2020-07-15T15:55:47-05:00
; #@! TF.GenerationSoftware,Kicad,Pcbnew,(5.1.6)-1
; #@! TF.FileFunction,NonPlated,1,2,NPTH
FMAT,2
METRIC,TZ
T1C0.650
T2C1.750
T3C3.988
%
G90
G05
T1
X54610Y-46250
X60390Y-46250
T2
X72420Y-91500
X82580Y-91500
X110420Y-148500
X120580Y-148500
X91420Y-148500
X101580Y-148500
X110420Y-91500
X120580Y-91500
X110420Y-110500
X120580Y-110500
X53420Y-91500
X63580Y-91500
X53420Y-148500
X63580Y-148500
X72420Y-148500
X82580Y-148500
X53420Y-110500
X63580Y-110500
X72420Y-110500
X82580Y-110500
X110420Y-129500
X120580Y-129500
X91420Y-110500
X101580Y-110500
X72420Y-129500
X82580Y-129500
X91420Y-91500
X101580Y-91500
X91420Y-129500
X101580Y-129500
X53420Y-129500
X63580Y-129500
T3
X77500Y-91500
X115500Y-148500
X96500Y-148500
X115500Y-91500
X115500Y-110500
X58500Y-91500
X58500Y-148500
X77500Y-148500
X58500Y-110500
X77500Y-110500
X115500Y-129500
X96500Y-110500
X77500Y-129500
X96500Y-91500
X96500Y-129500
X58500Y-129500
T0
M30
