%TF.GenerationSoftware,KiCad,Pcbnew,(5.1.6)-1*%
%TF.CreationDate,2020-07-15T15:55:53-05:00*%
%TF.ProjectId,deco-pad-v1,6465636f-2d70-4616-942d-76312e6b6963,rev?*%
%TF.SameCoordinates,Original*%
%TF.FileFunction,Legend,Bot*%
%TF.FilePolarity,Positive*%
%FSLAX46Y46*%
G04 Gerber Fmt 4.6, Leading zero omitted, Abs format (unit mm)*
G04 Created by KiCad (PCBNEW (5.1.6)-1) date 2020-07-15 15:55:53*
%MOMM*%
%LPD*%
G01*
G04 APERTURE LIST*
%ADD10C,0.150000*%
%ADD11C,0.120000*%
%ADD12C,0.100000*%
G04 APERTURE END LIST*
D10*
X66390000Y-66961428D02*
X66247142Y-67104285D01*
X66390000Y-67247142D01*
X66532857Y-67104285D01*
X66390000Y-66961428D01*
X66390000Y-67247142D01*
D11*
%TO.C,J1*%
X70500000Y-57830000D02*
X71830000Y-57830000D01*
X71830000Y-57830000D02*
X71830000Y-56500000D01*
X69230000Y-57830000D02*
X69230000Y-55230000D01*
X69230000Y-55230000D02*
X71830000Y-55230000D01*
X71830000Y-55230000D02*
X71830000Y-50090000D01*
X66630000Y-50090000D02*
X71830000Y-50090000D01*
X66630000Y-57830000D02*
X66630000Y-50090000D01*
X66630000Y-57830000D02*
X69230000Y-57830000D01*
%TO.C,R8*%
X59710000Y-58241422D02*
X59710000Y-58758578D01*
X58290000Y-58241422D02*
X58290000Y-58758578D01*
%TO.C,R4*%
X95110000Y-53458578D02*
X95110000Y-52941422D01*
X93690000Y-53458578D02*
X93690000Y-52941422D01*
%TO.C,R3*%
X93690000Y-70541422D02*
X93690000Y-71058578D01*
X95110000Y-70541422D02*
X95110000Y-71058578D01*
%TO.C,R2*%
X99310000Y-71058578D02*
X99310000Y-70541422D01*
X97890000Y-71058578D02*
X97890000Y-70541422D01*
%TO.C,R1*%
X97890000Y-52941422D02*
X97890000Y-53458578D01*
X99310000Y-52941422D02*
X99310000Y-53458578D01*
%TO.C,D17*%
X114100000Y-73750000D02*
X112100000Y-73750000D01*
X112100000Y-73750000D02*
X112100000Y-69850000D01*
X114100000Y-73750000D02*
X114100000Y-69850000D01*
%TO.C,C2*%
X95790000Y-52941422D02*
X95790000Y-53458578D01*
X97210000Y-52941422D02*
X97210000Y-53458578D01*
%TO.C,C1*%
X97210000Y-71058578D02*
X97210000Y-70541422D01*
X95790000Y-71058578D02*
X95790000Y-70541422D01*
%TO.C,Y1*%
X71550000Y-64250000D02*
X67550000Y-64250000D01*
X71550000Y-60950000D02*
X71550000Y-64250000D01*
D10*
%TO.C,U1*%
X57200000Y-53100000D02*
X58800000Y-53100000D01*
X59200000Y-53100000D02*
X59500000Y-53100000D01*
X57200000Y-56300000D02*
X58800000Y-56300000D01*
D11*
%TO.C,U2*%
X67115000Y-74110000D02*
X66390000Y-74110000D01*
X73610000Y-66890000D02*
X73610000Y-67615000D01*
X72885000Y-66890000D02*
X73610000Y-66890000D01*
X66390000Y-66890000D02*
X66390000Y-67615000D01*
X67115000Y-66890000D02*
X66390000Y-66890000D01*
X73610000Y-74110000D02*
X73610000Y-73385000D01*
X72885000Y-74110000D02*
X73610000Y-74110000D01*
%TO.C,SW2*%
X82050000Y-55800000D02*
X82050000Y-53200000D01*
X75750000Y-51050000D02*
X75750000Y-51300000D01*
X82050000Y-51050000D02*
X75750000Y-51050000D01*
X82050000Y-51300000D02*
X82050000Y-51050000D01*
X75750000Y-53200000D02*
X75750000Y-55800000D01*
X82050000Y-57950000D02*
X82050000Y-57700000D01*
X75750000Y-57950000D02*
X82050000Y-57950000D01*
X75750000Y-57700000D02*
X75750000Y-57950000D01*
%TO.C,R11*%
X75490000Y-76858578D02*
X75490000Y-76341422D01*
X76910000Y-76858578D02*
X76910000Y-76341422D01*
%TO.C,R10*%
X75441422Y-44090000D02*
X75958578Y-44090000D01*
X75441422Y-45510000D02*
X75958578Y-45510000D01*
%TO.C,R9*%
X85710000Y-51041422D02*
X85710000Y-51558578D01*
X84290000Y-51041422D02*
X84290000Y-51558578D01*
%TO.C,R7*%
X56290000Y-58758578D02*
X56290000Y-58241422D01*
X57710000Y-58758578D02*
X57710000Y-58241422D01*
%TO.C,R6*%
X54958578Y-52410000D02*
X54441422Y-52410000D01*
X54958578Y-50990000D02*
X54441422Y-50990000D01*
%TO.C,R5*%
X60541422Y-50990000D02*
X61058578Y-50990000D01*
X60541422Y-52410000D02*
X61058578Y-52410000D01*
%TO.C,F1*%
X67302064Y-46810000D02*
X66097936Y-46810000D01*
X67302064Y-44990000D02*
X66097936Y-44990000D01*
%TO.C,D19*%
X74015000Y-46040000D02*
X76700000Y-46040000D01*
X74015000Y-47960000D02*
X74015000Y-46040000D01*
X76700000Y-47960000D02*
X74015000Y-47960000D01*
%TO.C,D18*%
X73750000Y-44900000D02*
X69850000Y-44900000D01*
X73750000Y-46900000D02*
X69850000Y-46900000D01*
X73750000Y-44900000D02*
X73750000Y-46900000D01*
%TO.C,D16*%
X124500000Y-150750000D02*
X124500000Y-146850000D01*
X122500000Y-150750000D02*
X122500000Y-146850000D01*
X124500000Y-150750000D02*
X122500000Y-150750000D01*
%TO.C,D15*%
X124500000Y-131750000D02*
X124500000Y-127850000D01*
X122500000Y-131750000D02*
X122500000Y-127850000D01*
X124500000Y-131750000D02*
X122500000Y-131750000D01*
%TO.C,D14*%
X124500000Y-112750000D02*
X124500000Y-108850000D01*
X122500000Y-112750000D02*
X122500000Y-108850000D01*
X124500000Y-112750000D02*
X122500000Y-112750000D01*
%TO.C,D13*%
X124500000Y-93750000D02*
X124500000Y-89850000D01*
X122500000Y-93750000D02*
X122500000Y-89850000D01*
X124500000Y-93750000D02*
X122500000Y-93750000D01*
%TO.C,D12*%
X105500000Y-150750000D02*
X105500000Y-146850000D01*
X103500000Y-150750000D02*
X103500000Y-146850000D01*
X105500000Y-150750000D02*
X103500000Y-150750000D01*
%TO.C,D11*%
X105500000Y-131750000D02*
X105500000Y-127850000D01*
X103500000Y-131750000D02*
X103500000Y-127850000D01*
X105500000Y-131750000D02*
X103500000Y-131750000D01*
%TO.C,D10*%
X105500000Y-112750000D02*
X105500000Y-108850000D01*
X103500000Y-112750000D02*
X103500000Y-108850000D01*
X105500000Y-112750000D02*
X103500000Y-112750000D01*
%TO.C,D9*%
X105500000Y-93750000D02*
X105500000Y-89850000D01*
X103500000Y-93750000D02*
X103500000Y-89850000D01*
X105500000Y-93750000D02*
X103500000Y-93750000D01*
%TO.C,D8*%
X86500000Y-150750000D02*
X86500000Y-146850000D01*
X84500000Y-150750000D02*
X84500000Y-146850000D01*
X86500000Y-150750000D02*
X84500000Y-150750000D01*
%TO.C,D7*%
X86500000Y-131750000D02*
X86500000Y-127850000D01*
X84500000Y-131750000D02*
X84500000Y-127850000D01*
X86500000Y-131750000D02*
X84500000Y-131750000D01*
%TO.C,D6*%
X86500000Y-112750000D02*
X86500000Y-108850000D01*
X84500000Y-112750000D02*
X84500000Y-108850000D01*
X86500000Y-112750000D02*
X84500000Y-112750000D01*
%TO.C,D5*%
X86500000Y-93750000D02*
X86500000Y-89850000D01*
X84500000Y-93750000D02*
X84500000Y-89850000D01*
X86500000Y-93750000D02*
X84500000Y-93750000D01*
%TO.C,D4*%
X67500000Y-150750000D02*
X67500000Y-146850000D01*
X65500000Y-150750000D02*
X65500000Y-146850000D01*
X67500000Y-150750000D02*
X65500000Y-150750000D01*
%TO.C,D3*%
X67500000Y-131750000D02*
X67500000Y-127850000D01*
X65500000Y-131750000D02*
X65500000Y-127850000D01*
X67500000Y-131750000D02*
X65500000Y-131750000D01*
%TO.C,D2*%
X67500000Y-112750000D02*
X67500000Y-108850000D01*
X65500000Y-112750000D02*
X65500000Y-108850000D01*
X67500000Y-112750000D02*
X65500000Y-112750000D01*
%TO.C,D1*%
X67500000Y-93750000D02*
X67500000Y-89850000D01*
X65500000Y-93750000D02*
X65500000Y-89850000D01*
X67500000Y-93750000D02*
X65500000Y-93750000D01*
%TO.C,C11*%
X64310000Y-76241422D02*
X64310000Y-76758578D01*
X62890000Y-76241422D02*
X62890000Y-76758578D01*
%TO.C,C10*%
X63058578Y-71010000D02*
X62541422Y-71010000D01*
X63058578Y-69590000D02*
X62541422Y-69590000D01*
%TO.C,C9*%
X68310000Y-76241422D02*
X68310000Y-76758578D01*
X66890000Y-76241422D02*
X66890000Y-76758578D01*
%TO.C,C8*%
X66310000Y-76241422D02*
X66310000Y-76758578D01*
X64890000Y-76241422D02*
X64890000Y-76758578D01*
%TO.C,C7*%
X64258578Y-66910000D02*
X63741422Y-66910000D01*
X64258578Y-65490000D02*
X63741422Y-65490000D01*
%TO.C,C6*%
X74490000Y-67258578D02*
X74490000Y-66741422D01*
X75910000Y-67258578D02*
X75910000Y-66741422D01*
%TO.C,C5*%
X74810000Y-76378922D02*
X74810000Y-76896078D01*
X73390000Y-76378922D02*
X73390000Y-76896078D01*
%TO.C,C4*%
X67060000Y-62341422D02*
X67060000Y-62858578D01*
X65640000Y-62341422D02*
X65640000Y-62858578D01*
%TO.C,C3*%
X72040000Y-62858578D02*
X72040000Y-62341422D01*
X73460000Y-62858578D02*
X73460000Y-62341422D01*
%TO.C,J1*%
D10*
X69633333Y-48452380D02*
X69633333Y-49166666D01*
X69680952Y-49309523D01*
X69776190Y-49404761D01*
X69919047Y-49452380D01*
X70014285Y-49452380D01*
X68633333Y-49452380D02*
X69204761Y-49452380D01*
X68919047Y-49452380D02*
X68919047Y-48452380D01*
X69014285Y-48595238D01*
X69109523Y-48690476D01*
X69204761Y-48738095D01*
%TO.C,R8*%
X61152380Y-58333333D02*
X60676190Y-58000000D01*
X61152380Y-57761904D02*
X60152380Y-57761904D01*
X60152380Y-58142857D01*
X60200000Y-58238095D01*
X60247619Y-58285714D01*
X60342857Y-58333333D01*
X60485714Y-58333333D01*
X60580952Y-58285714D01*
X60628571Y-58238095D01*
X60676190Y-58142857D01*
X60676190Y-57761904D01*
X60580952Y-58904761D02*
X60533333Y-58809523D01*
X60485714Y-58761904D01*
X60390476Y-58714285D01*
X60342857Y-58714285D01*
X60247619Y-58761904D01*
X60200000Y-58809523D01*
X60152380Y-58904761D01*
X60152380Y-59095238D01*
X60200000Y-59190476D01*
X60247619Y-59238095D01*
X60342857Y-59285714D01*
X60390476Y-59285714D01*
X60485714Y-59238095D01*
X60533333Y-59190476D01*
X60580952Y-59095238D01*
X60580952Y-58904761D01*
X60628571Y-58809523D01*
X60676190Y-58761904D01*
X60771428Y-58714285D01*
X60961904Y-58714285D01*
X61057142Y-58761904D01*
X61104761Y-58809523D01*
X61152380Y-58904761D01*
X61152380Y-59095238D01*
X61104761Y-59190476D01*
X61057142Y-59238095D01*
X60961904Y-59285714D01*
X60771428Y-59285714D01*
X60676190Y-59238095D01*
X60628571Y-59190476D01*
X60580952Y-59095238D01*
%TO.C,R4*%
X94852380Y-50233333D02*
X94376190Y-49900000D01*
X94852380Y-49661904D02*
X93852380Y-49661904D01*
X93852380Y-50042857D01*
X93900000Y-50138095D01*
X93947619Y-50185714D01*
X94042857Y-50233333D01*
X94185714Y-50233333D01*
X94280952Y-50185714D01*
X94328571Y-50138095D01*
X94376190Y-50042857D01*
X94376190Y-49661904D01*
X94185714Y-51090476D02*
X94852380Y-51090476D01*
X93804761Y-50852380D02*
X94519047Y-50614285D01*
X94519047Y-51233333D01*
%TO.C,R3*%
X94852380Y-73233333D02*
X94376190Y-72900000D01*
X94852380Y-72661904D02*
X93852380Y-72661904D01*
X93852380Y-73042857D01*
X93900000Y-73138095D01*
X93947619Y-73185714D01*
X94042857Y-73233333D01*
X94185714Y-73233333D01*
X94280952Y-73185714D01*
X94328571Y-73138095D01*
X94376190Y-73042857D01*
X94376190Y-72661904D01*
X93852380Y-73566666D02*
X93852380Y-74185714D01*
X94233333Y-73852380D01*
X94233333Y-73995238D01*
X94280952Y-74090476D01*
X94328571Y-74138095D01*
X94423809Y-74185714D01*
X94661904Y-74185714D01*
X94757142Y-74138095D01*
X94804761Y-74090476D01*
X94852380Y-73995238D01*
X94852380Y-73709523D01*
X94804761Y-73614285D01*
X94757142Y-73566666D01*
%TO.C,R2*%
X99052380Y-73233333D02*
X98576190Y-72900000D01*
X99052380Y-72661904D02*
X98052380Y-72661904D01*
X98052380Y-73042857D01*
X98100000Y-73138095D01*
X98147619Y-73185714D01*
X98242857Y-73233333D01*
X98385714Y-73233333D01*
X98480952Y-73185714D01*
X98528571Y-73138095D01*
X98576190Y-73042857D01*
X98576190Y-72661904D01*
X98147619Y-73614285D02*
X98100000Y-73661904D01*
X98052380Y-73757142D01*
X98052380Y-73995238D01*
X98100000Y-74090476D01*
X98147619Y-74138095D01*
X98242857Y-74185714D01*
X98338095Y-74185714D01*
X98480952Y-74138095D01*
X99052380Y-73566666D01*
X99052380Y-74185714D01*
%TO.C,R1*%
X98952380Y-50433333D02*
X98476190Y-50100000D01*
X98952380Y-49861904D02*
X97952380Y-49861904D01*
X97952380Y-50242857D01*
X98000000Y-50338095D01*
X98047619Y-50385714D01*
X98142857Y-50433333D01*
X98285714Y-50433333D01*
X98380952Y-50385714D01*
X98428571Y-50338095D01*
X98476190Y-50242857D01*
X98476190Y-49861904D01*
X98952380Y-51385714D02*
X98952380Y-50814285D01*
X98952380Y-51100000D02*
X97952380Y-51100000D01*
X98095238Y-51004761D01*
X98190476Y-50909523D01*
X98238095Y-50814285D01*
%TO.C,D17*%
X115552380Y-70285714D02*
X114552380Y-70285714D01*
X114552380Y-70523809D01*
X114600000Y-70666666D01*
X114695238Y-70761904D01*
X114790476Y-70809523D01*
X114980952Y-70857142D01*
X115123809Y-70857142D01*
X115314285Y-70809523D01*
X115409523Y-70761904D01*
X115504761Y-70666666D01*
X115552380Y-70523809D01*
X115552380Y-70285714D01*
X115552380Y-71809523D02*
X115552380Y-71238095D01*
X115552380Y-71523809D02*
X114552380Y-71523809D01*
X114695238Y-71428571D01*
X114790476Y-71333333D01*
X114838095Y-71238095D01*
X114552380Y-72142857D02*
X114552380Y-72809523D01*
X115552380Y-72380952D01*
%TO.C,C2*%
X96857142Y-50333333D02*
X96904761Y-50285714D01*
X96952380Y-50142857D01*
X96952380Y-50047619D01*
X96904761Y-49904761D01*
X96809523Y-49809523D01*
X96714285Y-49761904D01*
X96523809Y-49714285D01*
X96380952Y-49714285D01*
X96190476Y-49761904D01*
X96095238Y-49809523D01*
X96000000Y-49904761D01*
X95952380Y-50047619D01*
X95952380Y-50142857D01*
X96000000Y-50285714D01*
X96047619Y-50333333D01*
X96047619Y-50714285D02*
X96000000Y-50761904D01*
X95952380Y-50857142D01*
X95952380Y-51095238D01*
X96000000Y-51190476D01*
X96047619Y-51238095D01*
X96142857Y-51285714D01*
X96238095Y-51285714D01*
X96380952Y-51238095D01*
X96952380Y-50666666D01*
X96952380Y-51285714D01*
%TO.C,C1*%
X96857142Y-73233333D02*
X96904761Y-73185714D01*
X96952380Y-73042857D01*
X96952380Y-72947619D01*
X96904761Y-72804761D01*
X96809523Y-72709523D01*
X96714285Y-72661904D01*
X96523809Y-72614285D01*
X96380952Y-72614285D01*
X96190476Y-72661904D01*
X96095238Y-72709523D01*
X96000000Y-72804761D01*
X95952380Y-72947619D01*
X95952380Y-73042857D01*
X96000000Y-73185714D01*
X96047619Y-73233333D01*
X96952380Y-74185714D02*
X96952380Y-73614285D01*
X96952380Y-73900000D02*
X95952380Y-73900000D01*
X96095238Y-73804761D01*
X96190476Y-73709523D01*
X96238095Y-73614285D01*
%TO.C,Y1*%
X70026190Y-60126190D02*
X70026190Y-60602380D01*
X70359523Y-59602380D02*
X70026190Y-60126190D01*
X69692857Y-59602380D01*
X68835714Y-60602380D02*
X69407142Y-60602380D01*
X69121428Y-60602380D02*
X69121428Y-59602380D01*
X69216666Y-59745238D01*
X69311904Y-59840476D01*
X69407142Y-59888095D01*
%TO.C,USB1*%
X59238095Y-45452380D02*
X59238095Y-46261904D01*
X59190476Y-46357142D01*
X59142857Y-46404761D01*
X59047619Y-46452380D01*
X58857142Y-46452380D01*
X58761904Y-46404761D01*
X58714285Y-46357142D01*
X58666666Y-46261904D01*
X58666666Y-45452380D01*
X58238095Y-46404761D02*
X58095238Y-46452380D01*
X57857142Y-46452380D01*
X57761904Y-46404761D01*
X57714285Y-46357142D01*
X57666666Y-46261904D01*
X57666666Y-46166666D01*
X57714285Y-46071428D01*
X57761904Y-46023809D01*
X57857142Y-45976190D01*
X58047619Y-45928571D01*
X58142857Y-45880952D01*
X58190476Y-45833333D01*
X58238095Y-45738095D01*
X58238095Y-45642857D01*
X58190476Y-45547619D01*
X58142857Y-45500000D01*
X58047619Y-45452380D01*
X57809523Y-45452380D01*
X57666666Y-45500000D01*
X56904761Y-45928571D02*
X56761904Y-45976190D01*
X56714285Y-46023809D01*
X56666666Y-46119047D01*
X56666666Y-46261904D01*
X56714285Y-46357142D01*
X56761904Y-46404761D01*
X56857142Y-46452380D01*
X57238095Y-46452380D01*
X57238095Y-45452380D01*
X56904761Y-45452380D01*
X56809523Y-45500000D01*
X56761904Y-45547619D01*
X56714285Y-45642857D01*
X56714285Y-45738095D01*
X56761904Y-45833333D01*
X56809523Y-45880952D01*
X56904761Y-45928571D01*
X57238095Y-45928571D01*
X55714285Y-46452380D02*
X56285714Y-46452380D01*
X56000000Y-46452380D02*
X56000000Y-45452380D01*
X56095238Y-45595238D01*
X56190476Y-45690476D01*
X56285714Y-45738095D01*
%TO.C,U1*%
D12*
X55589285Y-55128571D02*
X56196428Y-55128571D01*
X56267857Y-55164285D01*
X56303571Y-55200000D01*
X56339285Y-55271428D01*
X56339285Y-55414285D01*
X56303571Y-55485714D01*
X56267857Y-55521428D01*
X56196428Y-55557142D01*
X55589285Y-55557142D01*
X56339285Y-56307142D02*
X56339285Y-55878571D01*
X56339285Y-56092857D02*
X55589285Y-56092857D01*
X55696428Y-56021428D01*
X55767857Y-55950000D01*
X55803571Y-55878571D01*
%TO.C,U2*%
D10*
X73661904Y-65152380D02*
X73661904Y-65961904D01*
X73614285Y-66057142D01*
X73566666Y-66104761D01*
X73471428Y-66152380D01*
X73280952Y-66152380D01*
X73185714Y-66104761D01*
X73138095Y-66057142D01*
X73090476Y-65961904D01*
X73090476Y-65152380D01*
X72661904Y-65247619D02*
X72614285Y-65200000D01*
X72519047Y-65152380D01*
X72280952Y-65152380D01*
X72185714Y-65200000D01*
X72138095Y-65247619D01*
X72090476Y-65342857D01*
X72090476Y-65438095D01*
X72138095Y-65580952D01*
X72709523Y-66152380D01*
X72090476Y-66152380D01*
%TO.C,SW2*%
X80233333Y-59404761D02*
X80090476Y-59452380D01*
X79852380Y-59452380D01*
X79757142Y-59404761D01*
X79709523Y-59357142D01*
X79661904Y-59261904D01*
X79661904Y-59166666D01*
X79709523Y-59071428D01*
X79757142Y-59023809D01*
X79852380Y-58976190D01*
X80042857Y-58928571D01*
X80138095Y-58880952D01*
X80185714Y-58833333D01*
X80233333Y-58738095D01*
X80233333Y-58642857D01*
X80185714Y-58547619D01*
X80138095Y-58500000D01*
X80042857Y-58452380D01*
X79804761Y-58452380D01*
X79661904Y-58500000D01*
X79328571Y-58452380D02*
X79090476Y-59452380D01*
X78900000Y-58738095D01*
X78709523Y-59452380D01*
X78471428Y-58452380D01*
X78138095Y-58547619D02*
X78090476Y-58500000D01*
X77995238Y-58452380D01*
X77757142Y-58452380D01*
X77661904Y-58500000D01*
X77614285Y-58547619D01*
X77566666Y-58642857D01*
X77566666Y-58738095D01*
X77614285Y-58880952D01*
X78185714Y-59452380D01*
X77566666Y-59452380D01*
%TO.C,R11*%
X76652380Y-79057142D02*
X76176190Y-78723809D01*
X76652380Y-78485714D02*
X75652380Y-78485714D01*
X75652380Y-78866666D01*
X75700000Y-78961904D01*
X75747619Y-79009523D01*
X75842857Y-79057142D01*
X75985714Y-79057142D01*
X76080952Y-79009523D01*
X76128571Y-78961904D01*
X76176190Y-78866666D01*
X76176190Y-78485714D01*
X76652380Y-80009523D02*
X76652380Y-79438095D01*
X76652380Y-79723809D02*
X75652380Y-79723809D01*
X75795238Y-79628571D01*
X75890476Y-79533333D01*
X75938095Y-79438095D01*
X76652380Y-80961904D02*
X76652380Y-80390476D01*
X76652380Y-80676190D02*
X75652380Y-80676190D01*
X75795238Y-80580952D01*
X75890476Y-80485714D01*
X75938095Y-80390476D01*
%TO.C,R10*%
X79442857Y-45252380D02*
X79776190Y-44776190D01*
X80014285Y-45252380D02*
X80014285Y-44252380D01*
X79633333Y-44252380D01*
X79538095Y-44300000D01*
X79490476Y-44347619D01*
X79442857Y-44442857D01*
X79442857Y-44585714D01*
X79490476Y-44680952D01*
X79538095Y-44728571D01*
X79633333Y-44776190D01*
X80014285Y-44776190D01*
X78490476Y-45252380D02*
X79061904Y-45252380D01*
X78776190Y-45252380D02*
X78776190Y-44252380D01*
X78871428Y-44395238D01*
X78966666Y-44490476D01*
X79061904Y-44538095D01*
X77871428Y-44252380D02*
X77776190Y-44252380D01*
X77680952Y-44300000D01*
X77633333Y-44347619D01*
X77585714Y-44442857D01*
X77538095Y-44633333D01*
X77538095Y-44871428D01*
X77585714Y-45061904D01*
X77633333Y-45157142D01*
X77680952Y-45204761D01*
X77776190Y-45252380D01*
X77871428Y-45252380D01*
X77966666Y-45204761D01*
X78014285Y-45157142D01*
X78061904Y-45061904D01*
X78109523Y-44871428D01*
X78109523Y-44633333D01*
X78061904Y-44442857D01*
X78014285Y-44347619D01*
X77966666Y-44300000D01*
X77871428Y-44252380D01*
%TO.C,R9*%
X87152380Y-51133333D02*
X86676190Y-50800000D01*
X87152380Y-50561904D02*
X86152380Y-50561904D01*
X86152380Y-50942857D01*
X86200000Y-51038095D01*
X86247619Y-51085714D01*
X86342857Y-51133333D01*
X86485714Y-51133333D01*
X86580952Y-51085714D01*
X86628571Y-51038095D01*
X86676190Y-50942857D01*
X86676190Y-50561904D01*
X87152380Y-51609523D02*
X87152380Y-51800000D01*
X87104761Y-51895238D01*
X87057142Y-51942857D01*
X86914285Y-52038095D01*
X86723809Y-52085714D01*
X86342857Y-52085714D01*
X86247619Y-52038095D01*
X86200000Y-51990476D01*
X86152380Y-51895238D01*
X86152380Y-51704761D01*
X86200000Y-51609523D01*
X86247619Y-51561904D01*
X86342857Y-51514285D01*
X86580952Y-51514285D01*
X86676190Y-51561904D01*
X86723809Y-51609523D01*
X86771428Y-51704761D01*
X86771428Y-51895238D01*
X86723809Y-51990476D01*
X86676190Y-52038095D01*
X86580952Y-52085714D01*
%TO.C,R7*%
X55852380Y-58333333D02*
X55376190Y-58000000D01*
X55852380Y-57761904D02*
X54852380Y-57761904D01*
X54852380Y-58142857D01*
X54900000Y-58238095D01*
X54947619Y-58285714D01*
X55042857Y-58333333D01*
X55185714Y-58333333D01*
X55280952Y-58285714D01*
X55328571Y-58238095D01*
X55376190Y-58142857D01*
X55376190Y-57761904D01*
X54852380Y-58666666D02*
X54852380Y-59333333D01*
X55852380Y-58904761D01*
%TO.C,R6*%
X54866666Y-53852380D02*
X55200000Y-53376190D01*
X55438095Y-53852380D02*
X55438095Y-52852380D01*
X55057142Y-52852380D01*
X54961904Y-52900000D01*
X54914285Y-52947619D01*
X54866666Y-53042857D01*
X54866666Y-53185714D01*
X54914285Y-53280952D01*
X54961904Y-53328571D01*
X55057142Y-53376190D01*
X55438095Y-53376190D01*
X54009523Y-52852380D02*
X54200000Y-52852380D01*
X54295238Y-52900000D01*
X54342857Y-52947619D01*
X54438095Y-53090476D01*
X54485714Y-53280952D01*
X54485714Y-53661904D01*
X54438095Y-53757142D01*
X54390476Y-53804761D01*
X54295238Y-53852380D01*
X54104761Y-53852380D01*
X54009523Y-53804761D01*
X53961904Y-53757142D01*
X53914285Y-53661904D01*
X53914285Y-53423809D01*
X53961904Y-53328571D01*
X54009523Y-53280952D01*
X54104761Y-53233333D01*
X54295238Y-53233333D01*
X54390476Y-53280952D01*
X54438095Y-53328571D01*
X54485714Y-53423809D01*
%TO.C,R5*%
X60966666Y-53802380D02*
X61300000Y-53326190D01*
X61538095Y-53802380D02*
X61538095Y-52802380D01*
X61157142Y-52802380D01*
X61061904Y-52850000D01*
X61014285Y-52897619D01*
X60966666Y-52992857D01*
X60966666Y-53135714D01*
X61014285Y-53230952D01*
X61061904Y-53278571D01*
X61157142Y-53326190D01*
X61538095Y-53326190D01*
X60061904Y-52802380D02*
X60538095Y-52802380D01*
X60585714Y-53278571D01*
X60538095Y-53230952D01*
X60442857Y-53183333D01*
X60204761Y-53183333D01*
X60109523Y-53230952D01*
X60061904Y-53278571D01*
X60014285Y-53373809D01*
X60014285Y-53611904D01*
X60061904Y-53707142D01*
X60109523Y-53754761D01*
X60204761Y-53802380D01*
X60442857Y-53802380D01*
X60538095Y-53754761D01*
X60585714Y-53707142D01*
%TO.C,F1*%
X67033333Y-44128571D02*
X67366666Y-44128571D01*
X67366666Y-44652380D02*
X67366666Y-43652380D01*
X66890476Y-43652380D01*
X65985714Y-44652380D02*
X66557142Y-44652380D01*
X66271428Y-44652380D02*
X66271428Y-43652380D01*
X66366666Y-43795238D01*
X66461904Y-43890476D01*
X66557142Y-43938095D01*
%TO.C,D19*%
X80014285Y-47452380D02*
X80014285Y-46452380D01*
X79776190Y-46452380D01*
X79633333Y-46500000D01*
X79538095Y-46595238D01*
X79490476Y-46690476D01*
X79442857Y-46880952D01*
X79442857Y-47023809D01*
X79490476Y-47214285D01*
X79538095Y-47309523D01*
X79633333Y-47404761D01*
X79776190Y-47452380D01*
X80014285Y-47452380D01*
X78490476Y-47452380D02*
X79061904Y-47452380D01*
X78776190Y-47452380D02*
X78776190Y-46452380D01*
X78871428Y-46595238D01*
X78966666Y-46690476D01*
X79061904Y-46738095D01*
X78014285Y-47452380D02*
X77823809Y-47452380D01*
X77728571Y-47404761D01*
X77680952Y-47357142D01*
X77585714Y-47214285D01*
X77538095Y-47023809D01*
X77538095Y-46642857D01*
X77585714Y-46547619D01*
X77633333Y-46500000D01*
X77728571Y-46452380D01*
X77919047Y-46452380D01*
X78014285Y-46500000D01*
X78061904Y-46547619D01*
X78109523Y-46642857D01*
X78109523Y-46880952D01*
X78061904Y-46976190D01*
X78014285Y-47023809D01*
X77919047Y-47071428D01*
X77728571Y-47071428D01*
X77633333Y-47023809D01*
X77585714Y-46976190D01*
X77538095Y-46880952D01*
%TO.C,D18*%
X72714285Y-44552380D02*
X72714285Y-43552380D01*
X72476190Y-43552380D01*
X72333333Y-43600000D01*
X72238095Y-43695238D01*
X72190476Y-43790476D01*
X72142857Y-43980952D01*
X72142857Y-44123809D01*
X72190476Y-44314285D01*
X72238095Y-44409523D01*
X72333333Y-44504761D01*
X72476190Y-44552380D01*
X72714285Y-44552380D01*
X71190476Y-44552380D02*
X71761904Y-44552380D01*
X71476190Y-44552380D02*
X71476190Y-43552380D01*
X71571428Y-43695238D01*
X71666666Y-43790476D01*
X71761904Y-43838095D01*
X70619047Y-43980952D02*
X70714285Y-43933333D01*
X70761904Y-43885714D01*
X70809523Y-43790476D01*
X70809523Y-43742857D01*
X70761904Y-43647619D01*
X70714285Y-43600000D01*
X70619047Y-43552380D01*
X70428571Y-43552380D01*
X70333333Y-43600000D01*
X70285714Y-43647619D01*
X70238095Y-43742857D01*
X70238095Y-43790476D01*
X70285714Y-43885714D01*
X70333333Y-43933333D01*
X70428571Y-43980952D01*
X70619047Y-43980952D01*
X70714285Y-44028571D01*
X70761904Y-44076190D01*
X70809523Y-44171428D01*
X70809523Y-44361904D01*
X70761904Y-44457142D01*
X70714285Y-44504761D01*
X70619047Y-44552380D01*
X70428571Y-44552380D01*
X70333333Y-44504761D01*
X70285714Y-44457142D01*
X70238095Y-44361904D01*
X70238095Y-44171428D01*
X70285714Y-44076190D01*
X70333333Y-44028571D01*
X70428571Y-43980952D01*
%TO.C,D16*%
X125952380Y-147285714D02*
X124952380Y-147285714D01*
X124952380Y-147523809D01*
X125000000Y-147666666D01*
X125095238Y-147761904D01*
X125190476Y-147809523D01*
X125380952Y-147857142D01*
X125523809Y-147857142D01*
X125714285Y-147809523D01*
X125809523Y-147761904D01*
X125904761Y-147666666D01*
X125952380Y-147523809D01*
X125952380Y-147285714D01*
X125952380Y-148809523D02*
X125952380Y-148238095D01*
X125952380Y-148523809D02*
X124952380Y-148523809D01*
X125095238Y-148428571D01*
X125190476Y-148333333D01*
X125238095Y-148238095D01*
X124952380Y-149666666D02*
X124952380Y-149476190D01*
X125000000Y-149380952D01*
X125047619Y-149333333D01*
X125190476Y-149238095D01*
X125380952Y-149190476D01*
X125761904Y-149190476D01*
X125857142Y-149238095D01*
X125904761Y-149285714D01*
X125952380Y-149380952D01*
X125952380Y-149571428D01*
X125904761Y-149666666D01*
X125857142Y-149714285D01*
X125761904Y-149761904D01*
X125523809Y-149761904D01*
X125428571Y-149714285D01*
X125380952Y-149666666D01*
X125333333Y-149571428D01*
X125333333Y-149380952D01*
X125380952Y-149285714D01*
X125428571Y-149238095D01*
X125523809Y-149190476D01*
%TO.C,D15*%
X125047619Y-130714285D02*
X126047619Y-130714285D01*
X126047619Y-130476190D01*
X126000000Y-130333333D01*
X125904761Y-130238095D01*
X125809523Y-130190476D01*
X125619047Y-130142857D01*
X125476190Y-130142857D01*
X125285714Y-130190476D01*
X125190476Y-130238095D01*
X125095238Y-130333333D01*
X125047619Y-130476190D01*
X125047619Y-130714285D01*
X125047619Y-129190476D02*
X125047619Y-129761904D01*
X125047619Y-129476190D02*
X126047619Y-129476190D01*
X125904761Y-129571428D01*
X125809523Y-129666666D01*
X125761904Y-129761904D01*
X126047619Y-128285714D02*
X126047619Y-128761904D01*
X125571428Y-128809523D01*
X125619047Y-128761904D01*
X125666666Y-128666666D01*
X125666666Y-128428571D01*
X125619047Y-128333333D01*
X125571428Y-128285714D01*
X125476190Y-128238095D01*
X125238095Y-128238095D01*
X125142857Y-128285714D01*
X125095238Y-128333333D01*
X125047619Y-128428571D01*
X125047619Y-128666666D01*
X125095238Y-128761904D01*
X125142857Y-128809523D01*
%TO.C,D14*%
X125952380Y-109285714D02*
X124952380Y-109285714D01*
X124952380Y-109523809D01*
X125000000Y-109666666D01*
X125095238Y-109761904D01*
X125190476Y-109809523D01*
X125380952Y-109857142D01*
X125523809Y-109857142D01*
X125714285Y-109809523D01*
X125809523Y-109761904D01*
X125904761Y-109666666D01*
X125952380Y-109523809D01*
X125952380Y-109285714D01*
X125952380Y-110809523D02*
X125952380Y-110238095D01*
X125952380Y-110523809D02*
X124952380Y-110523809D01*
X125095238Y-110428571D01*
X125190476Y-110333333D01*
X125238095Y-110238095D01*
X125285714Y-111666666D02*
X125952380Y-111666666D01*
X124904761Y-111428571D02*
X125619047Y-111190476D01*
X125619047Y-111809523D01*
%TO.C,D13*%
X125047619Y-92714285D02*
X126047619Y-92714285D01*
X126047619Y-92476190D01*
X126000000Y-92333333D01*
X125904761Y-92238095D01*
X125809523Y-92190476D01*
X125619047Y-92142857D01*
X125476190Y-92142857D01*
X125285714Y-92190476D01*
X125190476Y-92238095D01*
X125095238Y-92333333D01*
X125047619Y-92476190D01*
X125047619Y-92714285D01*
X125047619Y-91190476D02*
X125047619Y-91761904D01*
X125047619Y-91476190D02*
X126047619Y-91476190D01*
X125904761Y-91571428D01*
X125809523Y-91666666D01*
X125761904Y-91761904D01*
X126047619Y-90857142D02*
X126047619Y-90238095D01*
X125666666Y-90571428D01*
X125666666Y-90428571D01*
X125619047Y-90333333D01*
X125571428Y-90285714D01*
X125476190Y-90238095D01*
X125238095Y-90238095D01*
X125142857Y-90285714D01*
X125095238Y-90333333D01*
X125047619Y-90428571D01*
X125047619Y-90714285D01*
X125095238Y-90809523D01*
X125142857Y-90857142D01*
%TO.C,D12*%
X106047619Y-149714285D02*
X107047619Y-149714285D01*
X107047619Y-149476190D01*
X107000000Y-149333333D01*
X106904761Y-149238095D01*
X106809523Y-149190476D01*
X106619047Y-149142857D01*
X106476190Y-149142857D01*
X106285714Y-149190476D01*
X106190476Y-149238095D01*
X106095238Y-149333333D01*
X106047619Y-149476190D01*
X106047619Y-149714285D01*
X106047619Y-148190476D02*
X106047619Y-148761904D01*
X106047619Y-148476190D02*
X107047619Y-148476190D01*
X106904761Y-148571428D01*
X106809523Y-148666666D01*
X106761904Y-148761904D01*
X106952380Y-147809523D02*
X107000000Y-147761904D01*
X107047619Y-147666666D01*
X107047619Y-147428571D01*
X107000000Y-147333333D01*
X106952380Y-147285714D01*
X106857142Y-147238095D01*
X106761904Y-147238095D01*
X106619047Y-147285714D01*
X106047619Y-147857142D01*
X106047619Y-147238095D01*
%TO.C,D11*%
X106047619Y-130714285D02*
X107047619Y-130714285D01*
X107047619Y-130476190D01*
X107000000Y-130333333D01*
X106904761Y-130238095D01*
X106809523Y-130190476D01*
X106619047Y-130142857D01*
X106476190Y-130142857D01*
X106285714Y-130190476D01*
X106190476Y-130238095D01*
X106095238Y-130333333D01*
X106047619Y-130476190D01*
X106047619Y-130714285D01*
X106047619Y-129190476D02*
X106047619Y-129761904D01*
X106047619Y-129476190D02*
X107047619Y-129476190D01*
X106904761Y-129571428D01*
X106809523Y-129666666D01*
X106761904Y-129761904D01*
X106047619Y-128238095D02*
X106047619Y-128809523D01*
X106047619Y-128523809D02*
X107047619Y-128523809D01*
X106904761Y-128619047D01*
X106809523Y-128714285D01*
X106761904Y-128809523D01*
%TO.C,D10*%
X106952380Y-109285714D02*
X105952380Y-109285714D01*
X105952380Y-109523809D01*
X106000000Y-109666666D01*
X106095238Y-109761904D01*
X106190476Y-109809523D01*
X106380952Y-109857142D01*
X106523809Y-109857142D01*
X106714285Y-109809523D01*
X106809523Y-109761904D01*
X106904761Y-109666666D01*
X106952380Y-109523809D01*
X106952380Y-109285714D01*
X106952380Y-110809523D02*
X106952380Y-110238095D01*
X106952380Y-110523809D02*
X105952380Y-110523809D01*
X106095238Y-110428571D01*
X106190476Y-110333333D01*
X106238095Y-110238095D01*
X105952380Y-111428571D02*
X105952380Y-111523809D01*
X106000000Y-111619047D01*
X106047619Y-111666666D01*
X106142857Y-111714285D01*
X106333333Y-111761904D01*
X106571428Y-111761904D01*
X106761904Y-111714285D01*
X106857142Y-111666666D01*
X106904761Y-111619047D01*
X106952380Y-111523809D01*
X106952380Y-111428571D01*
X106904761Y-111333333D01*
X106857142Y-111285714D01*
X106761904Y-111238095D01*
X106571428Y-111190476D01*
X106333333Y-111190476D01*
X106142857Y-111238095D01*
X106047619Y-111285714D01*
X106000000Y-111333333D01*
X105952380Y-111428571D01*
%TO.C,D9*%
X106952380Y-90761904D02*
X105952380Y-90761904D01*
X105952380Y-91000000D01*
X106000000Y-91142857D01*
X106095238Y-91238095D01*
X106190476Y-91285714D01*
X106380952Y-91333333D01*
X106523809Y-91333333D01*
X106714285Y-91285714D01*
X106809523Y-91238095D01*
X106904761Y-91142857D01*
X106952380Y-91000000D01*
X106952380Y-90761904D01*
X106952380Y-91809523D02*
X106952380Y-92000000D01*
X106904761Y-92095238D01*
X106857142Y-92142857D01*
X106714285Y-92238095D01*
X106523809Y-92285714D01*
X106142857Y-92285714D01*
X106047619Y-92238095D01*
X106000000Y-92190476D01*
X105952380Y-92095238D01*
X105952380Y-91904761D01*
X106000000Y-91809523D01*
X106047619Y-91761904D01*
X106142857Y-91714285D01*
X106380952Y-91714285D01*
X106476190Y-91761904D01*
X106523809Y-91809523D01*
X106571428Y-91904761D01*
X106571428Y-92095238D01*
X106523809Y-92190476D01*
X106476190Y-92238095D01*
X106380952Y-92285714D01*
%TO.C,D8*%
X87047619Y-149238095D02*
X88047619Y-149238095D01*
X88047619Y-149000000D01*
X88000000Y-148857142D01*
X87904761Y-148761904D01*
X87809523Y-148714285D01*
X87619047Y-148666666D01*
X87476190Y-148666666D01*
X87285714Y-148714285D01*
X87190476Y-148761904D01*
X87095238Y-148857142D01*
X87047619Y-149000000D01*
X87047619Y-149238095D01*
X87619047Y-148095238D02*
X87666666Y-148190476D01*
X87714285Y-148238095D01*
X87809523Y-148285714D01*
X87857142Y-148285714D01*
X87952380Y-148238095D01*
X88000000Y-148190476D01*
X88047619Y-148095238D01*
X88047619Y-147904761D01*
X88000000Y-147809523D01*
X87952380Y-147761904D01*
X87857142Y-147714285D01*
X87809523Y-147714285D01*
X87714285Y-147761904D01*
X87666666Y-147809523D01*
X87619047Y-147904761D01*
X87619047Y-148095238D01*
X87571428Y-148190476D01*
X87523809Y-148238095D01*
X87428571Y-148285714D01*
X87238095Y-148285714D01*
X87142857Y-148238095D01*
X87095238Y-148190476D01*
X87047619Y-148095238D01*
X87047619Y-147904761D01*
X87095238Y-147809523D01*
X87142857Y-147761904D01*
X87238095Y-147714285D01*
X87428571Y-147714285D01*
X87523809Y-147761904D01*
X87571428Y-147809523D01*
X87619047Y-147904761D01*
%TO.C,D7*%
X87952380Y-128761904D02*
X86952380Y-128761904D01*
X86952380Y-129000000D01*
X87000000Y-129142857D01*
X87095238Y-129238095D01*
X87190476Y-129285714D01*
X87380952Y-129333333D01*
X87523809Y-129333333D01*
X87714285Y-129285714D01*
X87809523Y-129238095D01*
X87904761Y-129142857D01*
X87952380Y-129000000D01*
X87952380Y-128761904D01*
X86952380Y-129666666D02*
X86952380Y-130333333D01*
X87952380Y-129904761D01*
%TO.C,D6*%
X87952380Y-109761904D02*
X86952380Y-109761904D01*
X86952380Y-110000000D01*
X87000000Y-110142857D01*
X87095238Y-110238095D01*
X87190476Y-110285714D01*
X87380952Y-110333333D01*
X87523809Y-110333333D01*
X87714285Y-110285714D01*
X87809523Y-110238095D01*
X87904761Y-110142857D01*
X87952380Y-110000000D01*
X87952380Y-109761904D01*
X86952380Y-111190476D02*
X86952380Y-111000000D01*
X87000000Y-110904761D01*
X87047619Y-110857142D01*
X87190476Y-110761904D01*
X87380952Y-110714285D01*
X87761904Y-110714285D01*
X87857142Y-110761904D01*
X87904761Y-110809523D01*
X87952380Y-110904761D01*
X87952380Y-111095238D01*
X87904761Y-111190476D01*
X87857142Y-111238095D01*
X87761904Y-111285714D01*
X87523809Y-111285714D01*
X87428571Y-111238095D01*
X87380952Y-111190476D01*
X87333333Y-111095238D01*
X87333333Y-110904761D01*
X87380952Y-110809523D01*
X87428571Y-110761904D01*
X87523809Y-110714285D01*
%TO.C,D5*%
X87952380Y-90761904D02*
X86952380Y-90761904D01*
X86952380Y-91000000D01*
X87000000Y-91142857D01*
X87095238Y-91238095D01*
X87190476Y-91285714D01*
X87380952Y-91333333D01*
X87523809Y-91333333D01*
X87714285Y-91285714D01*
X87809523Y-91238095D01*
X87904761Y-91142857D01*
X87952380Y-91000000D01*
X87952380Y-90761904D01*
X86952380Y-92238095D02*
X86952380Y-91761904D01*
X87428571Y-91714285D01*
X87380952Y-91761904D01*
X87333333Y-91857142D01*
X87333333Y-92095238D01*
X87380952Y-92190476D01*
X87428571Y-92238095D01*
X87523809Y-92285714D01*
X87761904Y-92285714D01*
X87857142Y-92238095D01*
X87904761Y-92190476D01*
X87952380Y-92095238D01*
X87952380Y-91857142D01*
X87904761Y-91761904D01*
X87857142Y-91714285D01*
%TO.C,D4*%
X68952380Y-147761904D02*
X67952380Y-147761904D01*
X67952380Y-148000000D01*
X68000000Y-148142857D01*
X68095238Y-148238095D01*
X68190476Y-148285714D01*
X68380952Y-148333333D01*
X68523809Y-148333333D01*
X68714285Y-148285714D01*
X68809523Y-148238095D01*
X68904761Y-148142857D01*
X68952380Y-148000000D01*
X68952380Y-147761904D01*
X68285714Y-149190476D02*
X68952380Y-149190476D01*
X67904761Y-148952380D02*
X68619047Y-148714285D01*
X68619047Y-149333333D01*
%TO.C,D3*%
X68952380Y-128761904D02*
X67952380Y-128761904D01*
X67952380Y-129000000D01*
X68000000Y-129142857D01*
X68095238Y-129238095D01*
X68190476Y-129285714D01*
X68380952Y-129333333D01*
X68523809Y-129333333D01*
X68714285Y-129285714D01*
X68809523Y-129238095D01*
X68904761Y-129142857D01*
X68952380Y-129000000D01*
X68952380Y-128761904D01*
X67952380Y-129666666D02*
X67952380Y-130285714D01*
X68333333Y-129952380D01*
X68333333Y-130095238D01*
X68380952Y-130190476D01*
X68428571Y-130238095D01*
X68523809Y-130285714D01*
X68761904Y-130285714D01*
X68857142Y-130238095D01*
X68904761Y-130190476D01*
X68952380Y-130095238D01*
X68952380Y-129809523D01*
X68904761Y-129714285D01*
X68857142Y-129666666D01*
%TO.C,D2*%
X68047619Y-111238095D02*
X69047619Y-111238095D01*
X69047619Y-111000000D01*
X69000000Y-110857142D01*
X68904761Y-110761904D01*
X68809523Y-110714285D01*
X68619047Y-110666666D01*
X68476190Y-110666666D01*
X68285714Y-110714285D01*
X68190476Y-110761904D01*
X68095238Y-110857142D01*
X68047619Y-111000000D01*
X68047619Y-111238095D01*
X68952380Y-110285714D02*
X69000000Y-110238095D01*
X69047619Y-110142857D01*
X69047619Y-109904761D01*
X69000000Y-109809523D01*
X68952380Y-109761904D01*
X68857142Y-109714285D01*
X68761904Y-109714285D01*
X68619047Y-109761904D01*
X68047619Y-110333333D01*
X68047619Y-109714285D01*
%TO.C,D1*%
X68952380Y-90761904D02*
X67952380Y-90761904D01*
X67952380Y-91000000D01*
X68000000Y-91142857D01*
X68095238Y-91238095D01*
X68190476Y-91285714D01*
X68380952Y-91333333D01*
X68523809Y-91333333D01*
X68714285Y-91285714D01*
X68809523Y-91238095D01*
X68904761Y-91142857D01*
X68952380Y-91000000D01*
X68952380Y-90761904D01*
X68952380Y-92285714D02*
X68952380Y-91714285D01*
X68952380Y-92000000D02*
X67952380Y-92000000D01*
X68095238Y-91904761D01*
X68190476Y-91809523D01*
X68238095Y-91714285D01*
%TO.C,C11*%
X63957142Y-78957142D02*
X64004761Y-78909523D01*
X64052380Y-78766666D01*
X64052380Y-78671428D01*
X64004761Y-78528571D01*
X63909523Y-78433333D01*
X63814285Y-78385714D01*
X63623809Y-78338095D01*
X63480952Y-78338095D01*
X63290476Y-78385714D01*
X63195238Y-78433333D01*
X63100000Y-78528571D01*
X63052380Y-78671428D01*
X63052380Y-78766666D01*
X63100000Y-78909523D01*
X63147619Y-78957142D01*
X64052380Y-79909523D02*
X64052380Y-79338095D01*
X64052380Y-79623809D02*
X63052380Y-79623809D01*
X63195238Y-79528571D01*
X63290476Y-79433333D01*
X63338095Y-79338095D01*
X64052380Y-80861904D02*
X64052380Y-80290476D01*
X64052380Y-80576190D02*
X63052380Y-80576190D01*
X63195238Y-80480952D01*
X63290476Y-80385714D01*
X63338095Y-80290476D01*
%TO.C,C10*%
X60342857Y-70657142D02*
X60390476Y-70704761D01*
X60533333Y-70752380D01*
X60628571Y-70752380D01*
X60771428Y-70704761D01*
X60866666Y-70609523D01*
X60914285Y-70514285D01*
X60961904Y-70323809D01*
X60961904Y-70180952D01*
X60914285Y-69990476D01*
X60866666Y-69895238D01*
X60771428Y-69800000D01*
X60628571Y-69752380D01*
X60533333Y-69752380D01*
X60390476Y-69800000D01*
X60342857Y-69847619D01*
X59390476Y-70752380D02*
X59961904Y-70752380D01*
X59676190Y-70752380D02*
X59676190Y-69752380D01*
X59771428Y-69895238D01*
X59866666Y-69990476D01*
X59961904Y-70038095D01*
X58771428Y-69752380D02*
X58676190Y-69752380D01*
X58580952Y-69800000D01*
X58533333Y-69847619D01*
X58485714Y-69942857D01*
X58438095Y-70133333D01*
X58438095Y-70371428D01*
X58485714Y-70561904D01*
X58533333Y-70657142D01*
X58580952Y-70704761D01*
X58676190Y-70752380D01*
X58771428Y-70752380D01*
X58866666Y-70704761D01*
X58914285Y-70657142D01*
X58961904Y-70561904D01*
X59009523Y-70371428D01*
X59009523Y-70133333D01*
X58961904Y-69942857D01*
X58914285Y-69847619D01*
X58866666Y-69800000D01*
X58771428Y-69752380D01*
%TO.C,C9*%
X67957142Y-78933333D02*
X68004761Y-78885714D01*
X68052380Y-78742857D01*
X68052380Y-78647619D01*
X68004761Y-78504761D01*
X67909523Y-78409523D01*
X67814285Y-78361904D01*
X67623809Y-78314285D01*
X67480952Y-78314285D01*
X67290476Y-78361904D01*
X67195238Y-78409523D01*
X67100000Y-78504761D01*
X67052380Y-78647619D01*
X67052380Y-78742857D01*
X67100000Y-78885714D01*
X67147619Y-78933333D01*
X68052380Y-79409523D02*
X68052380Y-79600000D01*
X68004761Y-79695238D01*
X67957142Y-79742857D01*
X67814285Y-79838095D01*
X67623809Y-79885714D01*
X67242857Y-79885714D01*
X67147619Y-79838095D01*
X67100000Y-79790476D01*
X67052380Y-79695238D01*
X67052380Y-79504761D01*
X67100000Y-79409523D01*
X67147619Y-79361904D01*
X67242857Y-79314285D01*
X67480952Y-79314285D01*
X67576190Y-79361904D01*
X67623809Y-79409523D01*
X67671428Y-79504761D01*
X67671428Y-79695238D01*
X67623809Y-79790476D01*
X67576190Y-79838095D01*
X67480952Y-79885714D01*
%TO.C,C8*%
X65957142Y-78933333D02*
X66004761Y-78885714D01*
X66052380Y-78742857D01*
X66052380Y-78647619D01*
X66004761Y-78504761D01*
X65909523Y-78409523D01*
X65814285Y-78361904D01*
X65623809Y-78314285D01*
X65480952Y-78314285D01*
X65290476Y-78361904D01*
X65195238Y-78409523D01*
X65100000Y-78504761D01*
X65052380Y-78647619D01*
X65052380Y-78742857D01*
X65100000Y-78885714D01*
X65147619Y-78933333D01*
X65480952Y-79504761D02*
X65433333Y-79409523D01*
X65385714Y-79361904D01*
X65290476Y-79314285D01*
X65242857Y-79314285D01*
X65147619Y-79361904D01*
X65100000Y-79409523D01*
X65052380Y-79504761D01*
X65052380Y-79695238D01*
X65100000Y-79790476D01*
X65147619Y-79838095D01*
X65242857Y-79885714D01*
X65290476Y-79885714D01*
X65385714Y-79838095D01*
X65433333Y-79790476D01*
X65480952Y-79695238D01*
X65480952Y-79504761D01*
X65528571Y-79409523D01*
X65576190Y-79361904D01*
X65671428Y-79314285D01*
X65861904Y-79314285D01*
X65957142Y-79361904D01*
X66004761Y-79409523D01*
X66052380Y-79504761D01*
X66052380Y-79695238D01*
X66004761Y-79790476D01*
X65957142Y-79838095D01*
X65861904Y-79885714D01*
X65671428Y-79885714D01*
X65576190Y-79838095D01*
X65528571Y-79790476D01*
X65480952Y-79695238D01*
%TO.C,C7*%
X61566666Y-66557142D02*
X61614285Y-66604761D01*
X61757142Y-66652380D01*
X61852380Y-66652380D01*
X61995238Y-66604761D01*
X62090476Y-66509523D01*
X62138095Y-66414285D01*
X62185714Y-66223809D01*
X62185714Y-66080952D01*
X62138095Y-65890476D01*
X62090476Y-65795238D01*
X61995238Y-65700000D01*
X61852380Y-65652380D01*
X61757142Y-65652380D01*
X61614285Y-65700000D01*
X61566666Y-65747619D01*
X61233333Y-65652380D02*
X60566666Y-65652380D01*
X60995238Y-66652380D01*
%TO.C,C6*%
X75366666Y-65057142D02*
X75414285Y-65104761D01*
X75557142Y-65152380D01*
X75652380Y-65152380D01*
X75795238Y-65104761D01*
X75890476Y-65009523D01*
X75938095Y-64914285D01*
X75985714Y-64723809D01*
X75985714Y-64580952D01*
X75938095Y-64390476D01*
X75890476Y-64295238D01*
X75795238Y-64200000D01*
X75652380Y-64152380D01*
X75557142Y-64152380D01*
X75414285Y-64200000D01*
X75366666Y-64247619D01*
X74509523Y-64152380D02*
X74700000Y-64152380D01*
X74795238Y-64200000D01*
X74842857Y-64247619D01*
X74938095Y-64390476D01*
X74985714Y-64580952D01*
X74985714Y-64961904D01*
X74938095Y-65057142D01*
X74890476Y-65104761D01*
X74795238Y-65152380D01*
X74604761Y-65152380D01*
X74509523Y-65104761D01*
X74461904Y-65057142D01*
X74414285Y-64961904D01*
X74414285Y-64723809D01*
X74461904Y-64628571D01*
X74509523Y-64580952D01*
X74604761Y-64533333D01*
X74795238Y-64533333D01*
X74890476Y-64580952D01*
X74938095Y-64628571D01*
X74985714Y-64723809D01*
%TO.C,C5*%
X74407142Y-79133333D02*
X74454761Y-79085714D01*
X74502380Y-78942857D01*
X74502380Y-78847619D01*
X74454761Y-78704761D01*
X74359523Y-78609523D01*
X74264285Y-78561904D01*
X74073809Y-78514285D01*
X73930952Y-78514285D01*
X73740476Y-78561904D01*
X73645238Y-78609523D01*
X73550000Y-78704761D01*
X73502380Y-78847619D01*
X73502380Y-78942857D01*
X73550000Y-79085714D01*
X73597619Y-79133333D01*
X73502380Y-80038095D02*
X73502380Y-79561904D01*
X73978571Y-79514285D01*
X73930952Y-79561904D01*
X73883333Y-79657142D01*
X73883333Y-79895238D01*
X73930952Y-79990476D01*
X73978571Y-80038095D01*
X74073809Y-80085714D01*
X74311904Y-80085714D01*
X74407142Y-80038095D01*
X74454761Y-79990476D01*
X74502380Y-79895238D01*
X74502380Y-79657142D01*
X74454761Y-79561904D01*
X74407142Y-79514285D01*
%TO.C,C4*%
X65057142Y-62433333D02*
X65104761Y-62385714D01*
X65152380Y-62242857D01*
X65152380Y-62147619D01*
X65104761Y-62004761D01*
X65009523Y-61909523D01*
X64914285Y-61861904D01*
X64723809Y-61814285D01*
X64580952Y-61814285D01*
X64390476Y-61861904D01*
X64295238Y-61909523D01*
X64200000Y-62004761D01*
X64152380Y-62147619D01*
X64152380Y-62242857D01*
X64200000Y-62385714D01*
X64247619Y-62433333D01*
X64485714Y-63290476D02*
X65152380Y-63290476D01*
X64104761Y-63052380D02*
X64819047Y-62814285D01*
X64819047Y-63433333D01*
%TO.C,C3*%
X74757142Y-62433333D02*
X74804761Y-62385714D01*
X74852380Y-62242857D01*
X74852380Y-62147619D01*
X74804761Y-62004761D01*
X74709523Y-61909523D01*
X74614285Y-61861904D01*
X74423809Y-61814285D01*
X74280952Y-61814285D01*
X74090476Y-61861904D01*
X73995238Y-61909523D01*
X73900000Y-62004761D01*
X73852380Y-62147619D01*
X73852380Y-62242857D01*
X73900000Y-62385714D01*
X73947619Y-62433333D01*
X73852380Y-62766666D02*
X73852380Y-63385714D01*
X74233333Y-63052380D01*
X74233333Y-63195238D01*
X74280952Y-63290476D01*
X74328571Y-63338095D01*
X74423809Y-63385714D01*
X74661904Y-63385714D01*
X74757142Y-63338095D01*
X74804761Y-63290476D01*
X74852380Y-63195238D01*
X74852380Y-62909523D01*
X74804761Y-62814285D01*
X74757142Y-62766666D01*
%TD*%
M02*
