%TF.GenerationSoftware,KiCad,Pcbnew,(5.1.6)-1*%
%TF.CreationDate,2020-09-07T19:59:05-05:00*%
%TF.ProjectId,deco-pad-v1,6465636f-2d70-4616-942d-76312e6b6963,rev?*%
%TF.SameCoordinates,Original*%
%TF.FileFunction,Paste,Bot*%
%TF.FilePolarity,Positive*%
%FSLAX46Y46*%
G04 Gerber Fmt 4.6, Leading zero omitted, Abs format (unit mm)*
G04 Created by KiCad (PCBNEW (5.1.6)-1) date 2020-09-07 19:59:05*
%MOMM*%
%LPD*%
G01*
G04 APERTURE LIST*
%ADD10R,1.200000X0.900000*%
%ADD11R,1.400000X1.200000*%
%ADD12R,0.600000X2.450000*%
%ADD13R,0.300000X2.450000*%
%ADD14R,1.550000X1.300000*%
G04 APERTURE END LIST*
%TO.C,R5*%
G36*
G01*
X77150000Y-46456250D02*
X77150000Y-45543750D01*
G75*
G02*
X77393750Y-45300000I243750J0D01*
G01*
X77881250Y-45300000D01*
G75*
G02*
X78125000Y-45543750I0J-243750D01*
G01*
X78125000Y-46456250D01*
G75*
G02*
X77881250Y-46700000I-243750J0D01*
G01*
X77393750Y-46700000D01*
G75*
G02*
X77150000Y-46456250I0J243750D01*
G01*
G37*
G36*
G01*
X75275000Y-46456250D02*
X75275000Y-45543750D01*
G75*
G02*
X75518750Y-45300000I243750J0D01*
G01*
X76006250Y-45300000D01*
G75*
G02*
X76250000Y-45543750I0J-243750D01*
G01*
X76250000Y-46456250D01*
G75*
G02*
X76006250Y-46700000I-243750J0D01*
G01*
X75518750Y-46700000D01*
G75*
G02*
X75275000Y-46456250I0J243750D01*
G01*
G37*
%TD*%
%TO.C,D18*%
G36*
G01*
X77150000Y-48556250D02*
X77150000Y-47643750D01*
G75*
G02*
X77393750Y-47400000I243750J0D01*
G01*
X77881250Y-47400000D01*
G75*
G02*
X78125000Y-47643750I0J-243750D01*
G01*
X78125000Y-48556250D01*
G75*
G02*
X77881250Y-48800000I-243750J0D01*
G01*
X77393750Y-48800000D01*
G75*
G02*
X77150000Y-48556250I0J243750D01*
G01*
G37*
G36*
G01*
X75275000Y-48556250D02*
X75275000Y-47643750D01*
G75*
G02*
X75518750Y-47400000I243750J0D01*
G01*
X76006250Y-47400000D01*
G75*
G02*
X76250000Y-47643750I0J-243750D01*
G01*
X76250000Y-48556250D01*
G75*
G02*
X76006250Y-48800000I-243750J0D01*
G01*
X75518750Y-48800000D01*
G75*
G02*
X75275000Y-48556250I0J243750D01*
G01*
G37*
%TD*%
%TO.C,U1*%
G36*
G01*
X71425000Y-68825001D02*
X71425000Y-68274999D01*
G75*
G02*
X71674999Y-68025000I249999J0D01*
G01*
X72225001Y-68025000D01*
G75*
G02*
X72475000Y-68274999I0J-249999D01*
G01*
X72475000Y-68825001D01*
G75*
G02*
X72225001Y-69075000I-249999J0D01*
G01*
X71674999Y-69075000D01*
G75*
G02*
X71425000Y-68825001I0J249999D01*
G01*
G37*
G36*
G01*
X71425000Y-70125001D02*
X71425000Y-69574999D01*
G75*
G02*
X71674999Y-69325000I249999J0D01*
G01*
X72225001Y-69325000D01*
G75*
G02*
X72475000Y-69574999I0J-249999D01*
G01*
X72475000Y-70125001D01*
G75*
G02*
X72225001Y-70375000I-249999J0D01*
G01*
X71674999Y-70375000D01*
G75*
G02*
X71425000Y-70125001I0J249999D01*
G01*
G37*
G36*
G01*
X71425000Y-71425001D02*
X71425000Y-70874999D01*
G75*
G02*
X71674999Y-70625000I249999J0D01*
G01*
X72225001Y-70625000D01*
G75*
G02*
X72475000Y-70874999I0J-249999D01*
G01*
X72475000Y-71425001D01*
G75*
G02*
X72225001Y-71675000I-249999J0D01*
G01*
X71674999Y-71675000D01*
G75*
G02*
X71425000Y-71425001I0J249999D01*
G01*
G37*
G36*
G01*
X71425000Y-72725001D02*
X71425000Y-72174999D01*
G75*
G02*
X71674999Y-71925000I249999J0D01*
G01*
X72225001Y-71925000D01*
G75*
G02*
X72475000Y-72174999I0J-249999D01*
G01*
X72475000Y-72725001D01*
G75*
G02*
X72225001Y-72975000I-249999J0D01*
G01*
X71674999Y-72975000D01*
G75*
G02*
X71425000Y-72725001I0J249999D01*
G01*
G37*
G36*
G01*
X70125000Y-68825001D02*
X70125000Y-68274999D01*
G75*
G02*
X70374999Y-68025000I249999J0D01*
G01*
X70925001Y-68025000D01*
G75*
G02*
X71175000Y-68274999I0J-249999D01*
G01*
X71175000Y-68825001D01*
G75*
G02*
X70925001Y-69075000I-249999J0D01*
G01*
X70374999Y-69075000D01*
G75*
G02*
X70125000Y-68825001I0J249999D01*
G01*
G37*
G36*
G01*
X70125000Y-70125001D02*
X70125000Y-69574999D01*
G75*
G02*
X70374999Y-69325000I249999J0D01*
G01*
X70925001Y-69325000D01*
G75*
G02*
X71175000Y-69574999I0J-249999D01*
G01*
X71175000Y-70125001D01*
G75*
G02*
X70925001Y-70375000I-249999J0D01*
G01*
X70374999Y-70375000D01*
G75*
G02*
X70125000Y-70125001I0J249999D01*
G01*
G37*
G36*
G01*
X70125000Y-71425001D02*
X70125000Y-70874999D01*
G75*
G02*
X70374999Y-70625000I249999J0D01*
G01*
X70925001Y-70625000D01*
G75*
G02*
X71175000Y-70874999I0J-249999D01*
G01*
X71175000Y-71425001D01*
G75*
G02*
X70925001Y-71675000I-249999J0D01*
G01*
X70374999Y-71675000D01*
G75*
G02*
X70125000Y-71425001I0J249999D01*
G01*
G37*
G36*
G01*
X70125000Y-72725001D02*
X70125000Y-72174999D01*
G75*
G02*
X70374999Y-71925000I249999J0D01*
G01*
X70925001Y-71925000D01*
G75*
G02*
X71175000Y-72174999I0J-249999D01*
G01*
X71175000Y-72725001D01*
G75*
G02*
X70925001Y-72975000I-249999J0D01*
G01*
X70374999Y-72975000D01*
G75*
G02*
X70125000Y-72725001I0J249999D01*
G01*
G37*
G36*
G01*
X68825000Y-68825001D02*
X68825000Y-68274999D01*
G75*
G02*
X69074999Y-68025000I249999J0D01*
G01*
X69625001Y-68025000D01*
G75*
G02*
X69875000Y-68274999I0J-249999D01*
G01*
X69875000Y-68825001D01*
G75*
G02*
X69625001Y-69075000I-249999J0D01*
G01*
X69074999Y-69075000D01*
G75*
G02*
X68825000Y-68825001I0J249999D01*
G01*
G37*
G36*
G01*
X68825000Y-70125001D02*
X68825000Y-69574999D01*
G75*
G02*
X69074999Y-69325000I249999J0D01*
G01*
X69625001Y-69325000D01*
G75*
G02*
X69875000Y-69574999I0J-249999D01*
G01*
X69875000Y-70125001D01*
G75*
G02*
X69625001Y-70375000I-249999J0D01*
G01*
X69074999Y-70375000D01*
G75*
G02*
X68825000Y-70125001I0J249999D01*
G01*
G37*
G36*
G01*
X68825000Y-71425001D02*
X68825000Y-70874999D01*
G75*
G02*
X69074999Y-70625000I249999J0D01*
G01*
X69625001Y-70625000D01*
G75*
G02*
X69875000Y-70874999I0J-249999D01*
G01*
X69875000Y-71425001D01*
G75*
G02*
X69625001Y-71675000I-249999J0D01*
G01*
X69074999Y-71675000D01*
G75*
G02*
X68825000Y-71425001I0J249999D01*
G01*
G37*
G36*
G01*
X68825000Y-72725001D02*
X68825000Y-72174999D01*
G75*
G02*
X69074999Y-71925000I249999J0D01*
G01*
X69625001Y-71925000D01*
G75*
G02*
X69875000Y-72174999I0J-249999D01*
G01*
X69875000Y-72725001D01*
G75*
G02*
X69625001Y-72975000I-249999J0D01*
G01*
X69074999Y-72975000D01*
G75*
G02*
X68825000Y-72725001I0J249999D01*
G01*
G37*
G36*
G01*
X67525000Y-68825001D02*
X67525000Y-68274999D01*
G75*
G02*
X67774999Y-68025000I249999J0D01*
G01*
X68325001Y-68025000D01*
G75*
G02*
X68575000Y-68274999I0J-249999D01*
G01*
X68575000Y-68825001D01*
G75*
G02*
X68325001Y-69075000I-249999J0D01*
G01*
X67774999Y-69075000D01*
G75*
G02*
X67525000Y-68825001I0J249999D01*
G01*
G37*
G36*
G01*
X67525000Y-70125001D02*
X67525000Y-69574999D01*
G75*
G02*
X67774999Y-69325000I249999J0D01*
G01*
X68325001Y-69325000D01*
G75*
G02*
X68575000Y-69574999I0J-249999D01*
G01*
X68575000Y-70125001D01*
G75*
G02*
X68325001Y-70375000I-249999J0D01*
G01*
X67774999Y-70375000D01*
G75*
G02*
X67525000Y-70125001I0J249999D01*
G01*
G37*
G36*
G01*
X67525000Y-71425001D02*
X67525000Y-70874999D01*
G75*
G02*
X67774999Y-70625000I249999J0D01*
G01*
X68325001Y-70625000D01*
G75*
G02*
X68575000Y-70874999I0J-249999D01*
G01*
X68575000Y-71425001D01*
G75*
G02*
X68325001Y-71675000I-249999J0D01*
G01*
X67774999Y-71675000D01*
G75*
G02*
X67525000Y-71425001I0J249999D01*
G01*
G37*
G36*
G01*
X67525000Y-72725001D02*
X67525000Y-72174999D01*
G75*
G02*
X67774999Y-71925000I249999J0D01*
G01*
X68325001Y-71925000D01*
G75*
G02*
X68575000Y-72174999I0J-249999D01*
G01*
X68575000Y-72725001D01*
G75*
G02*
X68325001Y-72975000I-249999J0D01*
G01*
X67774999Y-72975000D01*
G75*
G02*
X67525000Y-72725001I0J249999D01*
G01*
G37*
G36*
G01*
X67375000Y-74312500D02*
X67375000Y-73362500D01*
G75*
G02*
X67437500Y-73300000I62500J0D01*
G01*
X67562500Y-73300000D01*
G75*
G02*
X67625000Y-73362500I0J-62500D01*
G01*
X67625000Y-74312500D01*
G75*
G02*
X67562500Y-74375000I-62500J0D01*
G01*
X67437500Y-74375000D01*
G75*
G02*
X67375000Y-74312500I0J62500D01*
G01*
G37*
G36*
G01*
X67875000Y-74312500D02*
X67875000Y-73362500D01*
G75*
G02*
X67937500Y-73300000I62500J0D01*
G01*
X68062500Y-73300000D01*
G75*
G02*
X68125000Y-73362500I0J-62500D01*
G01*
X68125000Y-74312500D01*
G75*
G02*
X68062500Y-74375000I-62500J0D01*
G01*
X67937500Y-74375000D01*
G75*
G02*
X67875000Y-74312500I0J62500D01*
G01*
G37*
G36*
G01*
X68375000Y-74312500D02*
X68375000Y-73362500D01*
G75*
G02*
X68437500Y-73300000I62500J0D01*
G01*
X68562500Y-73300000D01*
G75*
G02*
X68625000Y-73362500I0J-62500D01*
G01*
X68625000Y-74312500D01*
G75*
G02*
X68562500Y-74375000I-62500J0D01*
G01*
X68437500Y-74375000D01*
G75*
G02*
X68375000Y-74312500I0J62500D01*
G01*
G37*
G36*
G01*
X68875000Y-74312500D02*
X68875000Y-73362500D01*
G75*
G02*
X68937500Y-73300000I62500J0D01*
G01*
X69062500Y-73300000D01*
G75*
G02*
X69125000Y-73362500I0J-62500D01*
G01*
X69125000Y-74312500D01*
G75*
G02*
X69062500Y-74375000I-62500J0D01*
G01*
X68937500Y-74375000D01*
G75*
G02*
X68875000Y-74312500I0J62500D01*
G01*
G37*
G36*
G01*
X69375000Y-74312500D02*
X69375000Y-73362500D01*
G75*
G02*
X69437500Y-73300000I62500J0D01*
G01*
X69562500Y-73300000D01*
G75*
G02*
X69625000Y-73362500I0J-62500D01*
G01*
X69625000Y-74312500D01*
G75*
G02*
X69562500Y-74375000I-62500J0D01*
G01*
X69437500Y-74375000D01*
G75*
G02*
X69375000Y-74312500I0J62500D01*
G01*
G37*
G36*
G01*
X69875000Y-74312500D02*
X69875000Y-73362500D01*
G75*
G02*
X69937500Y-73300000I62500J0D01*
G01*
X70062500Y-73300000D01*
G75*
G02*
X70125000Y-73362500I0J-62500D01*
G01*
X70125000Y-74312500D01*
G75*
G02*
X70062500Y-74375000I-62500J0D01*
G01*
X69937500Y-74375000D01*
G75*
G02*
X69875000Y-74312500I0J62500D01*
G01*
G37*
G36*
G01*
X70375000Y-74312500D02*
X70375000Y-73362500D01*
G75*
G02*
X70437500Y-73300000I62500J0D01*
G01*
X70562500Y-73300000D01*
G75*
G02*
X70625000Y-73362500I0J-62500D01*
G01*
X70625000Y-74312500D01*
G75*
G02*
X70562500Y-74375000I-62500J0D01*
G01*
X70437500Y-74375000D01*
G75*
G02*
X70375000Y-74312500I0J62500D01*
G01*
G37*
G36*
G01*
X70875000Y-74312500D02*
X70875000Y-73362500D01*
G75*
G02*
X70937500Y-73300000I62500J0D01*
G01*
X71062500Y-73300000D01*
G75*
G02*
X71125000Y-73362500I0J-62500D01*
G01*
X71125000Y-74312500D01*
G75*
G02*
X71062500Y-74375000I-62500J0D01*
G01*
X70937500Y-74375000D01*
G75*
G02*
X70875000Y-74312500I0J62500D01*
G01*
G37*
G36*
G01*
X71375000Y-74312500D02*
X71375000Y-73362500D01*
G75*
G02*
X71437500Y-73300000I62500J0D01*
G01*
X71562500Y-73300000D01*
G75*
G02*
X71625000Y-73362500I0J-62500D01*
G01*
X71625000Y-74312500D01*
G75*
G02*
X71562500Y-74375000I-62500J0D01*
G01*
X71437500Y-74375000D01*
G75*
G02*
X71375000Y-74312500I0J62500D01*
G01*
G37*
G36*
G01*
X71875000Y-74312500D02*
X71875000Y-73362500D01*
G75*
G02*
X71937500Y-73300000I62500J0D01*
G01*
X72062500Y-73300000D01*
G75*
G02*
X72125000Y-73362500I0J-62500D01*
G01*
X72125000Y-74312500D01*
G75*
G02*
X72062500Y-74375000I-62500J0D01*
G01*
X71937500Y-74375000D01*
G75*
G02*
X71875000Y-74312500I0J62500D01*
G01*
G37*
G36*
G01*
X72375000Y-74312500D02*
X72375000Y-73362500D01*
G75*
G02*
X72437500Y-73300000I62500J0D01*
G01*
X72562500Y-73300000D01*
G75*
G02*
X72625000Y-73362500I0J-62500D01*
G01*
X72625000Y-74312500D01*
G75*
G02*
X72562500Y-74375000I-62500J0D01*
G01*
X72437500Y-74375000D01*
G75*
G02*
X72375000Y-74312500I0J62500D01*
G01*
G37*
G36*
G01*
X72800000Y-73062500D02*
X72800000Y-72937500D01*
G75*
G02*
X72862500Y-72875000I62500J0D01*
G01*
X73812500Y-72875000D01*
G75*
G02*
X73875000Y-72937500I0J-62500D01*
G01*
X73875000Y-73062500D01*
G75*
G02*
X73812500Y-73125000I-62500J0D01*
G01*
X72862500Y-73125000D01*
G75*
G02*
X72800000Y-73062500I0J62500D01*
G01*
G37*
G36*
G01*
X72800000Y-72562500D02*
X72800000Y-72437500D01*
G75*
G02*
X72862500Y-72375000I62500J0D01*
G01*
X73812500Y-72375000D01*
G75*
G02*
X73875000Y-72437500I0J-62500D01*
G01*
X73875000Y-72562500D01*
G75*
G02*
X73812500Y-72625000I-62500J0D01*
G01*
X72862500Y-72625000D01*
G75*
G02*
X72800000Y-72562500I0J62500D01*
G01*
G37*
G36*
G01*
X72800000Y-72062500D02*
X72800000Y-71937500D01*
G75*
G02*
X72862500Y-71875000I62500J0D01*
G01*
X73812500Y-71875000D01*
G75*
G02*
X73875000Y-71937500I0J-62500D01*
G01*
X73875000Y-72062500D01*
G75*
G02*
X73812500Y-72125000I-62500J0D01*
G01*
X72862500Y-72125000D01*
G75*
G02*
X72800000Y-72062500I0J62500D01*
G01*
G37*
G36*
G01*
X72800000Y-71562500D02*
X72800000Y-71437500D01*
G75*
G02*
X72862500Y-71375000I62500J0D01*
G01*
X73812500Y-71375000D01*
G75*
G02*
X73875000Y-71437500I0J-62500D01*
G01*
X73875000Y-71562500D01*
G75*
G02*
X73812500Y-71625000I-62500J0D01*
G01*
X72862500Y-71625000D01*
G75*
G02*
X72800000Y-71562500I0J62500D01*
G01*
G37*
G36*
G01*
X72800000Y-71062500D02*
X72800000Y-70937500D01*
G75*
G02*
X72862500Y-70875000I62500J0D01*
G01*
X73812500Y-70875000D01*
G75*
G02*
X73875000Y-70937500I0J-62500D01*
G01*
X73875000Y-71062500D01*
G75*
G02*
X73812500Y-71125000I-62500J0D01*
G01*
X72862500Y-71125000D01*
G75*
G02*
X72800000Y-71062500I0J62500D01*
G01*
G37*
G36*
G01*
X72800000Y-70562500D02*
X72800000Y-70437500D01*
G75*
G02*
X72862500Y-70375000I62500J0D01*
G01*
X73812500Y-70375000D01*
G75*
G02*
X73875000Y-70437500I0J-62500D01*
G01*
X73875000Y-70562500D01*
G75*
G02*
X73812500Y-70625000I-62500J0D01*
G01*
X72862500Y-70625000D01*
G75*
G02*
X72800000Y-70562500I0J62500D01*
G01*
G37*
G36*
G01*
X72800000Y-70062500D02*
X72800000Y-69937500D01*
G75*
G02*
X72862500Y-69875000I62500J0D01*
G01*
X73812500Y-69875000D01*
G75*
G02*
X73875000Y-69937500I0J-62500D01*
G01*
X73875000Y-70062500D01*
G75*
G02*
X73812500Y-70125000I-62500J0D01*
G01*
X72862500Y-70125000D01*
G75*
G02*
X72800000Y-70062500I0J62500D01*
G01*
G37*
G36*
G01*
X72800000Y-69562500D02*
X72800000Y-69437500D01*
G75*
G02*
X72862500Y-69375000I62500J0D01*
G01*
X73812500Y-69375000D01*
G75*
G02*
X73875000Y-69437500I0J-62500D01*
G01*
X73875000Y-69562500D01*
G75*
G02*
X73812500Y-69625000I-62500J0D01*
G01*
X72862500Y-69625000D01*
G75*
G02*
X72800000Y-69562500I0J62500D01*
G01*
G37*
G36*
G01*
X72800000Y-69062500D02*
X72800000Y-68937500D01*
G75*
G02*
X72862500Y-68875000I62500J0D01*
G01*
X73812500Y-68875000D01*
G75*
G02*
X73875000Y-68937500I0J-62500D01*
G01*
X73875000Y-69062500D01*
G75*
G02*
X73812500Y-69125000I-62500J0D01*
G01*
X72862500Y-69125000D01*
G75*
G02*
X72800000Y-69062500I0J62500D01*
G01*
G37*
G36*
G01*
X72800000Y-68562500D02*
X72800000Y-68437500D01*
G75*
G02*
X72862500Y-68375000I62500J0D01*
G01*
X73812500Y-68375000D01*
G75*
G02*
X73875000Y-68437500I0J-62500D01*
G01*
X73875000Y-68562500D01*
G75*
G02*
X73812500Y-68625000I-62500J0D01*
G01*
X72862500Y-68625000D01*
G75*
G02*
X72800000Y-68562500I0J62500D01*
G01*
G37*
G36*
G01*
X72800000Y-68062500D02*
X72800000Y-67937500D01*
G75*
G02*
X72862500Y-67875000I62500J0D01*
G01*
X73812500Y-67875000D01*
G75*
G02*
X73875000Y-67937500I0J-62500D01*
G01*
X73875000Y-68062500D01*
G75*
G02*
X73812500Y-68125000I-62500J0D01*
G01*
X72862500Y-68125000D01*
G75*
G02*
X72800000Y-68062500I0J62500D01*
G01*
G37*
G36*
G01*
X72375000Y-67637500D02*
X72375000Y-66687500D01*
G75*
G02*
X72437500Y-66625000I62500J0D01*
G01*
X72562500Y-66625000D01*
G75*
G02*
X72625000Y-66687500I0J-62500D01*
G01*
X72625000Y-67637500D01*
G75*
G02*
X72562500Y-67700000I-62500J0D01*
G01*
X72437500Y-67700000D01*
G75*
G02*
X72375000Y-67637500I0J62500D01*
G01*
G37*
G36*
G01*
X71875000Y-67637500D02*
X71875000Y-66687500D01*
G75*
G02*
X71937500Y-66625000I62500J0D01*
G01*
X72062500Y-66625000D01*
G75*
G02*
X72125000Y-66687500I0J-62500D01*
G01*
X72125000Y-67637500D01*
G75*
G02*
X72062500Y-67700000I-62500J0D01*
G01*
X71937500Y-67700000D01*
G75*
G02*
X71875000Y-67637500I0J62500D01*
G01*
G37*
G36*
G01*
X71375000Y-67637500D02*
X71375000Y-66687500D01*
G75*
G02*
X71437500Y-66625000I62500J0D01*
G01*
X71562500Y-66625000D01*
G75*
G02*
X71625000Y-66687500I0J-62500D01*
G01*
X71625000Y-67637500D01*
G75*
G02*
X71562500Y-67700000I-62500J0D01*
G01*
X71437500Y-67700000D01*
G75*
G02*
X71375000Y-67637500I0J62500D01*
G01*
G37*
G36*
G01*
X70875000Y-67637500D02*
X70875000Y-66687500D01*
G75*
G02*
X70937500Y-66625000I62500J0D01*
G01*
X71062500Y-66625000D01*
G75*
G02*
X71125000Y-66687500I0J-62500D01*
G01*
X71125000Y-67637500D01*
G75*
G02*
X71062500Y-67700000I-62500J0D01*
G01*
X70937500Y-67700000D01*
G75*
G02*
X70875000Y-67637500I0J62500D01*
G01*
G37*
G36*
G01*
X70375000Y-67637500D02*
X70375000Y-66687500D01*
G75*
G02*
X70437500Y-66625000I62500J0D01*
G01*
X70562500Y-66625000D01*
G75*
G02*
X70625000Y-66687500I0J-62500D01*
G01*
X70625000Y-67637500D01*
G75*
G02*
X70562500Y-67700000I-62500J0D01*
G01*
X70437500Y-67700000D01*
G75*
G02*
X70375000Y-67637500I0J62500D01*
G01*
G37*
G36*
G01*
X69875000Y-67637500D02*
X69875000Y-66687500D01*
G75*
G02*
X69937500Y-66625000I62500J0D01*
G01*
X70062500Y-66625000D01*
G75*
G02*
X70125000Y-66687500I0J-62500D01*
G01*
X70125000Y-67637500D01*
G75*
G02*
X70062500Y-67700000I-62500J0D01*
G01*
X69937500Y-67700000D01*
G75*
G02*
X69875000Y-67637500I0J62500D01*
G01*
G37*
G36*
G01*
X69375000Y-67637500D02*
X69375000Y-66687500D01*
G75*
G02*
X69437500Y-66625000I62500J0D01*
G01*
X69562500Y-66625000D01*
G75*
G02*
X69625000Y-66687500I0J-62500D01*
G01*
X69625000Y-67637500D01*
G75*
G02*
X69562500Y-67700000I-62500J0D01*
G01*
X69437500Y-67700000D01*
G75*
G02*
X69375000Y-67637500I0J62500D01*
G01*
G37*
G36*
G01*
X68875000Y-67637500D02*
X68875000Y-66687500D01*
G75*
G02*
X68937500Y-66625000I62500J0D01*
G01*
X69062500Y-66625000D01*
G75*
G02*
X69125000Y-66687500I0J-62500D01*
G01*
X69125000Y-67637500D01*
G75*
G02*
X69062500Y-67700000I-62500J0D01*
G01*
X68937500Y-67700000D01*
G75*
G02*
X68875000Y-67637500I0J62500D01*
G01*
G37*
G36*
G01*
X68375000Y-67637500D02*
X68375000Y-66687500D01*
G75*
G02*
X68437500Y-66625000I62500J0D01*
G01*
X68562500Y-66625000D01*
G75*
G02*
X68625000Y-66687500I0J-62500D01*
G01*
X68625000Y-67637500D01*
G75*
G02*
X68562500Y-67700000I-62500J0D01*
G01*
X68437500Y-67700000D01*
G75*
G02*
X68375000Y-67637500I0J62500D01*
G01*
G37*
G36*
G01*
X67875000Y-67637500D02*
X67875000Y-66687500D01*
G75*
G02*
X67937500Y-66625000I62500J0D01*
G01*
X68062500Y-66625000D01*
G75*
G02*
X68125000Y-66687500I0J-62500D01*
G01*
X68125000Y-67637500D01*
G75*
G02*
X68062500Y-67700000I-62500J0D01*
G01*
X67937500Y-67700000D01*
G75*
G02*
X67875000Y-67637500I0J62500D01*
G01*
G37*
G36*
G01*
X67375000Y-67637500D02*
X67375000Y-66687500D01*
G75*
G02*
X67437500Y-66625000I62500J0D01*
G01*
X67562500Y-66625000D01*
G75*
G02*
X67625000Y-66687500I0J-62500D01*
G01*
X67625000Y-67637500D01*
G75*
G02*
X67562500Y-67700000I-62500J0D01*
G01*
X67437500Y-67700000D01*
G75*
G02*
X67375000Y-67637500I0J62500D01*
G01*
G37*
G36*
G01*
X66125000Y-68062500D02*
X66125000Y-67937500D01*
G75*
G02*
X66187500Y-67875000I62500J0D01*
G01*
X67137500Y-67875000D01*
G75*
G02*
X67200000Y-67937500I0J-62500D01*
G01*
X67200000Y-68062500D01*
G75*
G02*
X67137500Y-68125000I-62500J0D01*
G01*
X66187500Y-68125000D01*
G75*
G02*
X66125000Y-68062500I0J62500D01*
G01*
G37*
G36*
G01*
X66125000Y-68562500D02*
X66125000Y-68437500D01*
G75*
G02*
X66187500Y-68375000I62500J0D01*
G01*
X67137500Y-68375000D01*
G75*
G02*
X67200000Y-68437500I0J-62500D01*
G01*
X67200000Y-68562500D01*
G75*
G02*
X67137500Y-68625000I-62500J0D01*
G01*
X66187500Y-68625000D01*
G75*
G02*
X66125000Y-68562500I0J62500D01*
G01*
G37*
G36*
G01*
X66125000Y-69062500D02*
X66125000Y-68937500D01*
G75*
G02*
X66187500Y-68875000I62500J0D01*
G01*
X67137500Y-68875000D01*
G75*
G02*
X67200000Y-68937500I0J-62500D01*
G01*
X67200000Y-69062500D01*
G75*
G02*
X67137500Y-69125000I-62500J0D01*
G01*
X66187500Y-69125000D01*
G75*
G02*
X66125000Y-69062500I0J62500D01*
G01*
G37*
G36*
G01*
X66125000Y-69562500D02*
X66125000Y-69437500D01*
G75*
G02*
X66187500Y-69375000I62500J0D01*
G01*
X67137500Y-69375000D01*
G75*
G02*
X67200000Y-69437500I0J-62500D01*
G01*
X67200000Y-69562500D01*
G75*
G02*
X67137500Y-69625000I-62500J0D01*
G01*
X66187500Y-69625000D01*
G75*
G02*
X66125000Y-69562500I0J62500D01*
G01*
G37*
G36*
G01*
X66125000Y-70062500D02*
X66125000Y-69937500D01*
G75*
G02*
X66187500Y-69875000I62500J0D01*
G01*
X67137500Y-69875000D01*
G75*
G02*
X67200000Y-69937500I0J-62500D01*
G01*
X67200000Y-70062500D01*
G75*
G02*
X67137500Y-70125000I-62500J0D01*
G01*
X66187500Y-70125000D01*
G75*
G02*
X66125000Y-70062500I0J62500D01*
G01*
G37*
G36*
G01*
X66125000Y-70562500D02*
X66125000Y-70437500D01*
G75*
G02*
X66187500Y-70375000I62500J0D01*
G01*
X67137500Y-70375000D01*
G75*
G02*
X67200000Y-70437500I0J-62500D01*
G01*
X67200000Y-70562500D01*
G75*
G02*
X67137500Y-70625000I-62500J0D01*
G01*
X66187500Y-70625000D01*
G75*
G02*
X66125000Y-70562500I0J62500D01*
G01*
G37*
G36*
G01*
X66125000Y-71062500D02*
X66125000Y-70937500D01*
G75*
G02*
X66187500Y-70875000I62500J0D01*
G01*
X67137500Y-70875000D01*
G75*
G02*
X67200000Y-70937500I0J-62500D01*
G01*
X67200000Y-71062500D01*
G75*
G02*
X67137500Y-71125000I-62500J0D01*
G01*
X66187500Y-71125000D01*
G75*
G02*
X66125000Y-71062500I0J62500D01*
G01*
G37*
G36*
G01*
X66125000Y-71562500D02*
X66125000Y-71437500D01*
G75*
G02*
X66187500Y-71375000I62500J0D01*
G01*
X67137500Y-71375000D01*
G75*
G02*
X67200000Y-71437500I0J-62500D01*
G01*
X67200000Y-71562500D01*
G75*
G02*
X67137500Y-71625000I-62500J0D01*
G01*
X66187500Y-71625000D01*
G75*
G02*
X66125000Y-71562500I0J62500D01*
G01*
G37*
G36*
G01*
X66125000Y-72062500D02*
X66125000Y-71937500D01*
G75*
G02*
X66187500Y-71875000I62500J0D01*
G01*
X67137500Y-71875000D01*
G75*
G02*
X67200000Y-71937500I0J-62500D01*
G01*
X67200000Y-72062500D01*
G75*
G02*
X67137500Y-72125000I-62500J0D01*
G01*
X66187500Y-72125000D01*
G75*
G02*
X66125000Y-72062500I0J62500D01*
G01*
G37*
G36*
G01*
X66125000Y-72562500D02*
X66125000Y-72437500D01*
G75*
G02*
X66187500Y-72375000I62500J0D01*
G01*
X67137500Y-72375000D01*
G75*
G02*
X67200000Y-72437500I0J-62500D01*
G01*
X67200000Y-72562500D01*
G75*
G02*
X67137500Y-72625000I-62500J0D01*
G01*
X66187500Y-72625000D01*
G75*
G02*
X66125000Y-72562500I0J62500D01*
G01*
G37*
G36*
G01*
X66125000Y-73062500D02*
X66125000Y-72937500D01*
G75*
G02*
X66187500Y-72875000I62500J0D01*
G01*
X67137500Y-72875000D01*
G75*
G02*
X67200000Y-72937500I0J-62500D01*
G01*
X67200000Y-73062500D01*
G75*
G02*
X67137500Y-73125000I-62500J0D01*
G01*
X66187500Y-73125000D01*
G75*
G02*
X66125000Y-73062500I0J62500D01*
G01*
G37*
%TD*%
%TO.C,R4*%
G36*
G01*
X58543750Y-58950000D02*
X59456250Y-58950000D01*
G75*
G02*
X59700000Y-59193750I0J-243750D01*
G01*
X59700000Y-59681250D01*
G75*
G02*
X59456250Y-59925000I-243750J0D01*
G01*
X58543750Y-59925000D01*
G75*
G02*
X58300000Y-59681250I0J243750D01*
G01*
X58300000Y-59193750D01*
G75*
G02*
X58543750Y-58950000I243750J0D01*
G01*
G37*
G36*
G01*
X58543750Y-57075000D02*
X59456250Y-57075000D01*
G75*
G02*
X59700000Y-57318750I0J-243750D01*
G01*
X59700000Y-57806250D01*
G75*
G02*
X59456250Y-58050000I-243750J0D01*
G01*
X58543750Y-58050000D01*
G75*
G02*
X58300000Y-57806250I0J243750D01*
G01*
X58300000Y-57318750D01*
G75*
G02*
X58543750Y-57075000I243750J0D01*
G01*
G37*
%TD*%
%TO.C,R9*%
G36*
G01*
X94856250Y-49750000D02*
X93943750Y-49750000D01*
G75*
G02*
X93700000Y-49506250I0J243750D01*
G01*
X93700000Y-49018750D01*
G75*
G02*
X93943750Y-48775000I243750J0D01*
G01*
X94856250Y-48775000D01*
G75*
G02*
X95100000Y-49018750I0J-243750D01*
G01*
X95100000Y-49506250D01*
G75*
G02*
X94856250Y-49750000I-243750J0D01*
G01*
G37*
G36*
G01*
X94856250Y-51625000D02*
X93943750Y-51625000D01*
G75*
G02*
X93700000Y-51381250I0J243750D01*
G01*
X93700000Y-50893750D01*
G75*
G02*
X93943750Y-50650000I243750J0D01*
G01*
X94856250Y-50650000D01*
G75*
G02*
X95100000Y-50893750I0J-243750D01*
G01*
X95100000Y-51381250D01*
G75*
G02*
X94856250Y-51625000I-243750J0D01*
G01*
G37*
%TD*%
%TO.C,R8*%
G36*
G01*
X93943750Y-68250000D02*
X94856250Y-68250000D01*
G75*
G02*
X95100000Y-68493750I0J-243750D01*
G01*
X95100000Y-68981250D01*
G75*
G02*
X94856250Y-69225000I-243750J0D01*
G01*
X93943750Y-69225000D01*
G75*
G02*
X93700000Y-68981250I0J243750D01*
G01*
X93700000Y-68493750D01*
G75*
G02*
X93943750Y-68250000I243750J0D01*
G01*
G37*
G36*
G01*
X93943750Y-66375000D02*
X94856250Y-66375000D01*
G75*
G02*
X95100000Y-66618750I0J-243750D01*
G01*
X95100000Y-67106250D01*
G75*
G02*
X94856250Y-67350000I-243750J0D01*
G01*
X93943750Y-67350000D01*
G75*
G02*
X93700000Y-67106250I0J243750D01*
G01*
X93700000Y-66618750D01*
G75*
G02*
X93943750Y-66375000I243750J0D01*
G01*
G37*
%TD*%
%TO.C,R7*%
G36*
G01*
X99056250Y-67350000D02*
X98143750Y-67350000D01*
G75*
G02*
X97900000Y-67106250I0J243750D01*
G01*
X97900000Y-66618750D01*
G75*
G02*
X98143750Y-66375000I243750J0D01*
G01*
X99056250Y-66375000D01*
G75*
G02*
X99300000Y-66618750I0J-243750D01*
G01*
X99300000Y-67106250D01*
G75*
G02*
X99056250Y-67350000I-243750J0D01*
G01*
G37*
G36*
G01*
X99056250Y-69225000D02*
X98143750Y-69225000D01*
G75*
G02*
X97900000Y-68981250I0J243750D01*
G01*
X97900000Y-68493750D01*
G75*
G02*
X98143750Y-68250000I243750J0D01*
G01*
X99056250Y-68250000D01*
G75*
G02*
X99300000Y-68493750I0J-243750D01*
G01*
X99300000Y-68981250D01*
G75*
G02*
X99056250Y-69225000I-243750J0D01*
G01*
G37*
%TD*%
%TO.C,R6*%
G36*
G01*
X98143750Y-50650000D02*
X99056250Y-50650000D01*
G75*
G02*
X99300000Y-50893750I0J-243750D01*
G01*
X99300000Y-51381250D01*
G75*
G02*
X99056250Y-51625000I-243750J0D01*
G01*
X98143750Y-51625000D01*
G75*
G02*
X97900000Y-51381250I0J243750D01*
G01*
X97900000Y-50893750D01*
G75*
G02*
X98143750Y-50650000I243750J0D01*
G01*
G37*
G36*
G01*
X98143750Y-48775000D02*
X99056250Y-48775000D01*
G75*
G02*
X99300000Y-49018750I0J-243750D01*
G01*
X99300000Y-49506250D01*
G75*
G02*
X99056250Y-49750000I-243750J0D01*
G01*
X98143750Y-49750000D01*
G75*
G02*
X97900000Y-49506250I0J243750D01*
G01*
X97900000Y-49018750D01*
G75*
G02*
X98143750Y-48775000I243750J0D01*
G01*
G37*
%TD*%
D10*
%TO.C,D17*%
X113100000Y-66850000D03*
X113100000Y-70150000D03*
%TD*%
%TO.C,C2*%
G36*
G01*
X96043750Y-50650000D02*
X96956250Y-50650000D01*
G75*
G02*
X97200000Y-50893750I0J-243750D01*
G01*
X97200000Y-51381250D01*
G75*
G02*
X96956250Y-51625000I-243750J0D01*
G01*
X96043750Y-51625000D01*
G75*
G02*
X95800000Y-51381250I0J243750D01*
G01*
X95800000Y-50893750D01*
G75*
G02*
X96043750Y-50650000I243750J0D01*
G01*
G37*
G36*
G01*
X96043750Y-48775000D02*
X96956250Y-48775000D01*
G75*
G02*
X97200000Y-49018750I0J-243750D01*
G01*
X97200000Y-49506250D01*
G75*
G02*
X96956250Y-49750000I-243750J0D01*
G01*
X96043750Y-49750000D01*
G75*
G02*
X95800000Y-49506250I0J243750D01*
G01*
X95800000Y-49018750D01*
G75*
G02*
X96043750Y-48775000I243750J0D01*
G01*
G37*
%TD*%
%TO.C,C1*%
G36*
G01*
X96956250Y-67350000D02*
X96043750Y-67350000D01*
G75*
G02*
X95800000Y-67106250I0J243750D01*
G01*
X95800000Y-66618750D01*
G75*
G02*
X96043750Y-66375000I243750J0D01*
G01*
X96956250Y-66375000D01*
G75*
G02*
X97200000Y-66618750I0J-243750D01*
G01*
X97200000Y-67106250D01*
G75*
G02*
X96956250Y-67350000I-243750J0D01*
G01*
G37*
G36*
G01*
X96956250Y-69225000D02*
X96043750Y-69225000D01*
G75*
G02*
X95800000Y-68981250I0J243750D01*
G01*
X95800000Y-68493750D01*
G75*
G02*
X96043750Y-68250000I243750J0D01*
G01*
X96956250Y-68250000D01*
G75*
G02*
X97200000Y-68493750I0J-243750D01*
G01*
X97200000Y-68981250D01*
G75*
G02*
X96956250Y-69225000I-243750J0D01*
G01*
G37*
%TD*%
D11*
%TO.C,Y1*%
X70650000Y-61750000D03*
X68450000Y-61750000D03*
X68450000Y-63450000D03*
X70650000Y-63450000D03*
%TD*%
D12*
%TO.C,USB1*%
X60725000Y-48195000D03*
X54275000Y-48195000D03*
X59950000Y-48195000D03*
X55050000Y-48195000D03*
D13*
X55750000Y-48195000D03*
X59250000Y-48195000D03*
X56250000Y-48195000D03*
X58750000Y-48195000D03*
X56750000Y-48195000D03*
X58250000Y-48195000D03*
X57750000Y-48195000D03*
X57250000Y-48195000D03*
%TD*%
D14*
%TO.C,SW2*%
X82875000Y-52250000D03*
X74925000Y-52250000D03*
X82875000Y-56750000D03*
X74925000Y-56750000D03*
%TD*%
%TO.C,R11*%
G36*
G01*
X76656250Y-76150000D02*
X75743750Y-76150000D01*
G75*
G02*
X75500000Y-75906250I0J243750D01*
G01*
X75500000Y-75418750D01*
G75*
G02*
X75743750Y-75175000I243750J0D01*
G01*
X76656250Y-75175000D01*
G75*
G02*
X76900000Y-75418750I0J-243750D01*
G01*
X76900000Y-75906250D01*
G75*
G02*
X76656250Y-76150000I-243750J0D01*
G01*
G37*
G36*
G01*
X76656250Y-78025000D02*
X75743750Y-78025000D01*
G75*
G02*
X75500000Y-77781250I0J243750D01*
G01*
X75500000Y-77293750D01*
G75*
G02*
X75743750Y-77050000I243750J0D01*
G01*
X76656250Y-77050000D01*
G75*
G02*
X76900000Y-77293750I0J-243750D01*
G01*
X76900000Y-77781250D01*
G75*
G02*
X76656250Y-78025000I-243750J0D01*
G01*
G37*
%TD*%
%TO.C,R10*%
G36*
G01*
X84543750Y-51750000D02*
X85456250Y-51750000D01*
G75*
G02*
X85700000Y-51993750I0J-243750D01*
G01*
X85700000Y-52481250D01*
G75*
G02*
X85456250Y-52725000I-243750J0D01*
G01*
X84543750Y-52725000D01*
G75*
G02*
X84300000Y-52481250I0J243750D01*
G01*
X84300000Y-51993750D01*
G75*
G02*
X84543750Y-51750000I243750J0D01*
G01*
G37*
G36*
G01*
X84543750Y-49875000D02*
X85456250Y-49875000D01*
G75*
G02*
X85700000Y-50118750I0J-243750D01*
G01*
X85700000Y-50606250D01*
G75*
G02*
X85456250Y-50850000I-243750J0D01*
G01*
X84543750Y-50850000D01*
G75*
G02*
X84300000Y-50606250I0J243750D01*
G01*
X84300000Y-50118750D01*
G75*
G02*
X84543750Y-49875000I243750J0D01*
G01*
G37*
%TD*%
%TO.C,R3*%
G36*
G01*
X57456250Y-58050000D02*
X56543750Y-58050000D01*
G75*
G02*
X56300000Y-57806250I0J243750D01*
G01*
X56300000Y-57318750D01*
G75*
G02*
X56543750Y-57075000I243750J0D01*
G01*
X57456250Y-57075000D01*
G75*
G02*
X57700000Y-57318750I0J-243750D01*
G01*
X57700000Y-57806250D01*
G75*
G02*
X57456250Y-58050000I-243750J0D01*
G01*
G37*
G36*
G01*
X57456250Y-59925000D02*
X56543750Y-59925000D01*
G75*
G02*
X56300000Y-59681250I0J243750D01*
G01*
X56300000Y-59193750D01*
G75*
G02*
X56543750Y-58950000I243750J0D01*
G01*
X57456250Y-58950000D01*
G75*
G02*
X57700000Y-59193750I0J-243750D01*
G01*
X57700000Y-59681250D01*
G75*
G02*
X57456250Y-59925000I-243750J0D01*
G01*
G37*
%TD*%
%TO.C,R2*%
G36*
G01*
X54250000Y-51243750D02*
X54250000Y-52156250D01*
G75*
G02*
X54006250Y-52400000I-243750J0D01*
G01*
X53518750Y-52400000D01*
G75*
G02*
X53275000Y-52156250I0J243750D01*
G01*
X53275000Y-51243750D01*
G75*
G02*
X53518750Y-51000000I243750J0D01*
G01*
X54006250Y-51000000D01*
G75*
G02*
X54250000Y-51243750I0J-243750D01*
G01*
G37*
G36*
G01*
X56125000Y-51243750D02*
X56125000Y-52156250D01*
G75*
G02*
X55881250Y-52400000I-243750J0D01*
G01*
X55393750Y-52400000D01*
G75*
G02*
X55150000Y-52156250I0J243750D01*
G01*
X55150000Y-51243750D01*
G75*
G02*
X55393750Y-51000000I243750J0D01*
G01*
X55881250Y-51000000D01*
G75*
G02*
X56125000Y-51243750I0J-243750D01*
G01*
G37*
%TD*%
%TO.C,R1*%
G36*
G01*
X61250000Y-52156250D02*
X61250000Y-51243750D01*
G75*
G02*
X61493750Y-51000000I243750J0D01*
G01*
X61981250Y-51000000D01*
G75*
G02*
X62225000Y-51243750I0J-243750D01*
G01*
X62225000Y-52156250D01*
G75*
G02*
X61981250Y-52400000I-243750J0D01*
G01*
X61493750Y-52400000D01*
G75*
G02*
X61250000Y-52156250I0J243750D01*
G01*
G37*
G36*
G01*
X59375000Y-52156250D02*
X59375000Y-51243750D01*
G75*
G02*
X59618750Y-51000000I243750J0D01*
G01*
X60106250Y-51000000D01*
G75*
G02*
X60350000Y-51243750I0J-243750D01*
G01*
X60350000Y-52156250D01*
G75*
G02*
X60106250Y-52400000I-243750J0D01*
G01*
X59618750Y-52400000D01*
G75*
G02*
X59375000Y-52156250I0J243750D01*
G01*
G37*
%TD*%
%TO.C,F1*%
G36*
G01*
X69125000Y-45275000D02*
X69125000Y-46525000D01*
G75*
G02*
X68875000Y-46775000I-250000J0D01*
G01*
X68125000Y-46775000D01*
G75*
G02*
X67875000Y-46525000I0J250000D01*
G01*
X67875000Y-45275000D01*
G75*
G02*
X68125000Y-45025000I250000J0D01*
G01*
X68875000Y-45025000D01*
G75*
G02*
X69125000Y-45275000I0J-250000D01*
G01*
G37*
G36*
G01*
X71925000Y-45275000D02*
X71925000Y-46525000D01*
G75*
G02*
X71675000Y-46775000I-250000J0D01*
G01*
X70925000Y-46775000D01*
G75*
G02*
X70675000Y-46525000I0J250000D01*
G01*
X70675000Y-45275000D01*
G75*
G02*
X70925000Y-45025000I250000J0D01*
G01*
X71675000Y-45025000D01*
G75*
G02*
X71925000Y-45275000I0J-250000D01*
G01*
G37*
%TD*%
D10*
%TO.C,D16*%
X123500000Y-146850000D03*
X123500000Y-150150000D03*
%TD*%
%TO.C,D15*%
X123500000Y-127850000D03*
X123500000Y-131150000D03*
%TD*%
%TO.C,D14*%
X123500000Y-108850000D03*
X123500000Y-112150000D03*
%TD*%
%TO.C,D13*%
X123500000Y-89850000D03*
X123500000Y-93150000D03*
%TD*%
%TO.C,D12*%
X104500000Y-146850000D03*
X104500000Y-150150000D03*
%TD*%
%TO.C,D11*%
X104500000Y-127850000D03*
X104500000Y-131150000D03*
%TD*%
%TO.C,D10*%
X104500000Y-108850000D03*
X104500000Y-112150000D03*
%TD*%
%TO.C,D9*%
X104500000Y-89850000D03*
X104500000Y-93150000D03*
%TD*%
%TO.C,D8*%
X85500000Y-146850000D03*
X85500000Y-150150000D03*
%TD*%
%TO.C,D7*%
X85500000Y-127850000D03*
X85500000Y-131150000D03*
%TD*%
%TO.C,D6*%
X85500000Y-108850000D03*
X85500000Y-112150000D03*
%TD*%
%TO.C,D5*%
X85500000Y-89850000D03*
X85500000Y-93150000D03*
%TD*%
%TO.C,D4*%
X66500000Y-146850000D03*
X66500000Y-150150000D03*
%TD*%
%TO.C,D3*%
X66500000Y-127850000D03*
X66500000Y-131150000D03*
%TD*%
%TO.C,D2*%
X66500000Y-108850000D03*
X66500000Y-112150000D03*
%TD*%
%TO.C,D1*%
X66500000Y-89850000D03*
X66500000Y-93150000D03*
%TD*%
%TO.C,C11*%
G36*
G01*
X63143750Y-76950000D02*
X64056250Y-76950000D01*
G75*
G02*
X64300000Y-77193750I0J-243750D01*
G01*
X64300000Y-77681250D01*
G75*
G02*
X64056250Y-77925000I-243750J0D01*
G01*
X63143750Y-77925000D01*
G75*
G02*
X62900000Y-77681250I0J243750D01*
G01*
X62900000Y-77193750D01*
G75*
G02*
X63143750Y-76950000I243750J0D01*
G01*
G37*
G36*
G01*
X63143750Y-75075000D02*
X64056250Y-75075000D01*
G75*
G02*
X64300000Y-75318750I0J-243750D01*
G01*
X64300000Y-75806250D01*
G75*
G02*
X64056250Y-76050000I-243750J0D01*
G01*
X63143750Y-76050000D01*
G75*
G02*
X62900000Y-75806250I0J243750D01*
G01*
X62900000Y-75318750D01*
G75*
G02*
X63143750Y-75075000I243750J0D01*
G01*
G37*
%TD*%
%TO.C,C10*%
G36*
G01*
X62350000Y-69843750D02*
X62350000Y-70756250D01*
G75*
G02*
X62106250Y-71000000I-243750J0D01*
G01*
X61618750Y-71000000D01*
G75*
G02*
X61375000Y-70756250I0J243750D01*
G01*
X61375000Y-69843750D01*
G75*
G02*
X61618750Y-69600000I243750J0D01*
G01*
X62106250Y-69600000D01*
G75*
G02*
X62350000Y-69843750I0J-243750D01*
G01*
G37*
G36*
G01*
X64225000Y-69843750D02*
X64225000Y-70756250D01*
G75*
G02*
X63981250Y-71000000I-243750J0D01*
G01*
X63493750Y-71000000D01*
G75*
G02*
X63250000Y-70756250I0J243750D01*
G01*
X63250000Y-69843750D01*
G75*
G02*
X63493750Y-69600000I243750J0D01*
G01*
X63981250Y-69600000D01*
G75*
G02*
X64225000Y-69843750I0J-243750D01*
G01*
G37*
%TD*%
%TO.C,C9*%
G36*
G01*
X67143750Y-76950000D02*
X68056250Y-76950000D01*
G75*
G02*
X68300000Y-77193750I0J-243750D01*
G01*
X68300000Y-77681250D01*
G75*
G02*
X68056250Y-77925000I-243750J0D01*
G01*
X67143750Y-77925000D01*
G75*
G02*
X66900000Y-77681250I0J243750D01*
G01*
X66900000Y-77193750D01*
G75*
G02*
X67143750Y-76950000I243750J0D01*
G01*
G37*
G36*
G01*
X67143750Y-75075000D02*
X68056250Y-75075000D01*
G75*
G02*
X68300000Y-75318750I0J-243750D01*
G01*
X68300000Y-75806250D01*
G75*
G02*
X68056250Y-76050000I-243750J0D01*
G01*
X67143750Y-76050000D01*
G75*
G02*
X66900000Y-75806250I0J243750D01*
G01*
X66900000Y-75318750D01*
G75*
G02*
X67143750Y-75075000I243750J0D01*
G01*
G37*
%TD*%
%TO.C,C8*%
G36*
G01*
X65143750Y-76950000D02*
X66056250Y-76950000D01*
G75*
G02*
X66300000Y-77193750I0J-243750D01*
G01*
X66300000Y-77681250D01*
G75*
G02*
X66056250Y-77925000I-243750J0D01*
G01*
X65143750Y-77925000D01*
G75*
G02*
X64900000Y-77681250I0J243750D01*
G01*
X64900000Y-77193750D01*
G75*
G02*
X65143750Y-76950000I243750J0D01*
G01*
G37*
G36*
G01*
X65143750Y-75075000D02*
X66056250Y-75075000D01*
G75*
G02*
X66300000Y-75318750I0J-243750D01*
G01*
X66300000Y-75806250D01*
G75*
G02*
X66056250Y-76050000I-243750J0D01*
G01*
X65143750Y-76050000D01*
G75*
G02*
X64900000Y-75806250I0J243750D01*
G01*
X64900000Y-75318750D01*
G75*
G02*
X65143750Y-75075000I243750J0D01*
G01*
G37*
%TD*%
%TO.C,C7*%
G36*
G01*
X63550000Y-65743750D02*
X63550000Y-66656250D01*
G75*
G02*
X63306250Y-66900000I-243750J0D01*
G01*
X62818750Y-66900000D01*
G75*
G02*
X62575000Y-66656250I0J243750D01*
G01*
X62575000Y-65743750D01*
G75*
G02*
X62818750Y-65500000I243750J0D01*
G01*
X63306250Y-65500000D01*
G75*
G02*
X63550000Y-65743750I0J-243750D01*
G01*
G37*
G36*
G01*
X65425000Y-65743750D02*
X65425000Y-66656250D01*
G75*
G02*
X65181250Y-66900000I-243750J0D01*
G01*
X64693750Y-66900000D01*
G75*
G02*
X64450000Y-66656250I0J243750D01*
G01*
X64450000Y-65743750D01*
G75*
G02*
X64693750Y-65500000I243750J0D01*
G01*
X65181250Y-65500000D01*
G75*
G02*
X65425000Y-65743750I0J-243750D01*
G01*
G37*
%TD*%
%TO.C,C6*%
G36*
G01*
X75656250Y-66550000D02*
X74743750Y-66550000D01*
G75*
G02*
X74500000Y-66306250I0J243750D01*
G01*
X74500000Y-65818750D01*
G75*
G02*
X74743750Y-65575000I243750J0D01*
G01*
X75656250Y-65575000D01*
G75*
G02*
X75900000Y-65818750I0J-243750D01*
G01*
X75900000Y-66306250D01*
G75*
G02*
X75656250Y-66550000I-243750J0D01*
G01*
G37*
G36*
G01*
X75656250Y-68425000D02*
X74743750Y-68425000D01*
G75*
G02*
X74500000Y-68181250I0J243750D01*
G01*
X74500000Y-67693750D01*
G75*
G02*
X74743750Y-67450000I243750J0D01*
G01*
X75656250Y-67450000D01*
G75*
G02*
X75900000Y-67693750I0J-243750D01*
G01*
X75900000Y-68181250D01*
G75*
G02*
X75656250Y-68425000I-243750J0D01*
G01*
G37*
%TD*%
%TO.C,C5*%
G36*
G01*
X73643750Y-77087500D02*
X74556250Y-77087500D01*
G75*
G02*
X74800000Y-77331250I0J-243750D01*
G01*
X74800000Y-77818750D01*
G75*
G02*
X74556250Y-78062500I-243750J0D01*
G01*
X73643750Y-78062500D01*
G75*
G02*
X73400000Y-77818750I0J243750D01*
G01*
X73400000Y-77331250D01*
G75*
G02*
X73643750Y-77087500I243750J0D01*
G01*
G37*
G36*
G01*
X73643750Y-75212500D02*
X74556250Y-75212500D01*
G75*
G02*
X74800000Y-75456250I0J-243750D01*
G01*
X74800000Y-75943750D01*
G75*
G02*
X74556250Y-76187500I-243750J0D01*
G01*
X73643750Y-76187500D01*
G75*
G02*
X73400000Y-75943750I0J243750D01*
G01*
X73400000Y-75456250D01*
G75*
G02*
X73643750Y-75212500I243750J0D01*
G01*
G37*
%TD*%
%TO.C,C4*%
G36*
G01*
X65893750Y-63050000D02*
X66806250Y-63050000D01*
G75*
G02*
X67050000Y-63293750I0J-243750D01*
G01*
X67050000Y-63781250D01*
G75*
G02*
X66806250Y-64025000I-243750J0D01*
G01*
X65893750Y-64025000D01*
G75*
G02*
X65650000Y-63781250I0J243750D01*
G01*
X65650000Y-63293750D01*
G75*
G02*
X65893750Y-63050000I243750J0D01*
G01*
G37*
G36*
G01*
X65893750Y-61175000D02*
X66806250Y-61175000D01*
G75*
G02*
X67050000Y-61418750I0J-243750D01*
G01*
X67050000Y-61906250D01*
G75*
G02*
X66806250Y-62150000I-243750J0D01*
G01*
X65893750Y-62150000D01*
G75*
G02*
X65650000Y-61906250I0J243750D01*
G01*
X65650000Y-61418750D01*
G75*
G02*
X65893750Y-61175000I243750J0D01*
G01*
G37*
%TD*%
%TO.C,C3*%
G36*
G01*
X73206250Y-62150000D02*
X72293750Y-62150000D01*
G75*
G02*
X72050000Y-61906250I0J243750D01*
G01*
X72050000Y-61418750D01*
G75*
G02*
X72293750Y-61175000I243750J0D01*
G01*
X73206250Y-61175000D01*
G75*
G02*
X73450000Y-61418750I0J-243750D01*
G01*
X73450000Y-61906250D01*
G75*
G02*
X73206250Y-62150000I-243750J0D01*
G01*
G37*
G36*
G01*
X73206250Y-64025000D02*
X72293750Y-64025000D01*
G75*
G02*
X72050000Y-63781250I0J243750D01*
G01*
X72050000Y-63293750D01*
G75*
G02*
X72293750Y-63050000I243750J0D01*
G01*
X73206250Y-63050000D01*
G75*
G02*
X73450000Y-63293750I0J-243750D01*
G01*
X73450000Y-63781250D01*
G75*
G02*
X73206250Y-64025000I-243750J0D01*
G01*
G37*
%TD*%
M02*
